<svg width="38" height="38" viewBox="0 0 38 38" fill="none" xmlns="http://www.w3.org/2000/svg">
<path d="M19.7 11C19.7 10.6134 19.3866 10.3 19 10.3C18.6134 10.3 18.3 10.6134 18.3 11L19.7 11ZM18.505 26.495C18.7784 26.7683 19.2216 26.7683 19.495 26.495L23.9497 22.0402C24.2231 21.7668 24.2231 21.3236 23.9497 21.0503C23.6764 20.7769 23.2332 20.7769 22.9598 21.0503L19 25.0101L15.0402 21.0503C14.7668 20.7769 14.3236 20.7769 14.0503 21.0503C13.7769 21.3236 13.7769 21.7668 14.0503 22.0402L18.505 26.495ZM18.3 11L18.3 26L19.7 26L19.7 11L18.3 11Z" 
fill="var(--primary-fill, #E4E4E4)"
stroke="var(--primary-stroke, none)"
stroke-width="var(--primary-stroke-width, 0)"
/>
</svg>
