<svg width="38" height="38" viewBox="0 0 38 38" fill="none" xmlns="http://www.w3.org/2000/svg">
    <path
        d="M25.1109 15.1445C25.1109 18.7218 22.3331 19.2773 22.3331 22.6112C22.3331 24.3323 20.5981 24.4773 19.2776 24.4773C18.137 24.4773 15.6187 24.0445 15.6187 22.6101C15.6187 19.2779 12.8887 18.7223 12.8887 15.1445C12.8887 11.794 15.8248 9.07788 19.0459 9.07788C22.2681 9.07788 25.1109 11.794 25.1109 15.1445Z"
        fill="var(--primary-fill,#FFB308)" />
    <path
        d="M21.3146 27.0556C21.3146 27.5156 20.0735 28.4445 18.9996 28.4445C17.9257 28.4445 16.6846 27.5156 16.6846 27.0556C16.6846 26.5956 17.9251 26.7778 18.9996 26.7778C20.0735 26.7778 21.3146 26.5956 21.3146 27.0556Z"
        fill="#A8C2D4" />
    <path
        d="M21.6146 14.7181C21.3974 14.5009 21.0463 14.5009 20.829 14.7181L18.9996 16.5475L17.1702 14.7181C16.9529 14.5009 16.6018 14.5009 16.3846 14.7181C16.1674 14.9353 16.1674 15.2864 16.3846 15.5036L18.444 17.5631V23.4442C18.444 23.7514 18.6929 23.9998 18.9996 23.9998C19.3063 23.9998 19.5552 23.7514 19.5552 23.4442V17.5631L21.6146 15.5036C21.8318 15.2864 21.8318 14.9353 21.6146 14.7181Z"
        fill="#FFDF98" />
    <path
        d="M22.3337 26.2222C22.3337 26.8356 21.8359 27.3334 21.2225 27.3334H16.7781C16.1648 27.3334 15.667 26.8356 15.667 26.2222V22.8889H22.3337V26.2222Z"
        fill="#617C8D" />
    <path
        d="M15.6662 26.7784C15.3996 26.7784 15.164 26.5857 15.119 26.314C15.0684 26.0118 15.2729 25.7251 15.5757 25.6751L22.2423 24.564C22.5446 24.5095 22.8312 24.7179 22.8812 25.0207C22.9318 25.3229 22.7273 25.6095 22.4246 25.6595L15.7579 26.7707C15.7273 26.7762 15.6962 26.7784 15.6662 26.7784ZM15.6662 24.5562C15.3996 24.5562 15.164 24.3634 15.119 24.0918C15.0684 23.7895 15.2729 23.5029 15.5757 23.4529L22.2423 22.3418C22.5446 22.2879 22.8312 22.4957 22.8812 22.7984C22.9318 23.1007 22.7273 23.3873 22.4246 23.4373L15.7579 24.5484C15.7273 24.554 15.6962 24.5562 15.6662 24.5562Z"
        fill="#A8C2D4" />
</svg>