<svg width="38" height="38" viewBox="0 0 38 38" fill="none" xmlns="http://www.w3.org/2000/svg">
<path d="M16.2963 12.44H16.1481C16.2296 12.44 16.2963 12.368 16.2963 12.28V12.44ZM16.2963 12.44H21.9259V12.28C21.9259 12.368 21.9926 12.44 22.0741 12.44H21.9259V13.88H23.2593V12.28C23.2593 11.574 22.7278 11 22.0741 11H16.1481C15.4944 11 14.963 11.574 14.963 12.28V13.88H16.2963V12.44ZM25.6296 13.88H12.5926C12.2648 13.88 12 14.166 12 14.52V15.16C12 15.248 12.0667 15.32 12.1481 15.32H13.2667L13.7241 25.78C13.7537 26.462 14.2759 27 14.9074 27H23.3148C23.9481 27 24.4685 26.464 24.4981 25.78L24.9556 15.32H26.0741C26.1556 15.32 26.2222 15.248 26.2222 15.16V14.52C26.2222 14.166 25.9574 13.88 25.6296 13.88ZM23.1722 25.56H15.05L14.6019 15.32H23.6204L23.1722 25.56Z" 
fill="var(--primary-fill, #E4E4E4)"
stroke="var(--primary-stroke, none)"
stroke-width="var(--primary-stroke-width, 0)"
/>
</svg>
