<svg width="30" height="34" viewBox="0 0 30 34" fill="none" xmlns="http://www.w3.org/2000/svg">
    <path fill-rule="evenodd" clip-rule="evenodd"
        d="M13.3041 12.6787C13.3041 13.0386 13.1611 13.3838 12.9066 13.6383C12.6521 13.8928 12.3069 14.0358 11.947 14.0358C11.587 14.0358 11.2419 13.8928 10.9873 13.6383C10.7328 13.3838 10.5898 13.0386 10.5898 12.6787C10.5898 12.3187 10.7328 11.9735 10.9873 11.719C11.2419 11.4645 11.587 11.3215 11.947 11.3215C12.3069 11.3215 12.6521 11.4645 12.9066 11.719C13.1611 11.9735 13.3041 12.3187 13.3041 12.6787ZM11.947 18.7858C12.3069 18.7858 12.6521 18.6428 12.9066 18.3883C13.1611 18.1338 13.3041 17.7886 13.3041 17.4287C13.3041 17.0687 13.1611 16.7235 12.9066 16.469C12.6521 16.2145 12.3069 16.0715 11.947 16.0715C11.587 16.0715 11.2419 16.2145 10.9873 16.469C10.7328 16.7235 10.5898 17.0687 10.5898 17.4287C10.5898 17.7886 10.7328 18.1338 10.9873 18.3883C11.2419 18.6428 11.587 18.7858 11.947 18.7858ZM11.947 23.5358C12.3069 23.5358 12.6521 23.3928 12.9066 23.1383C13.1611 22.8838 13.3041 22.5386 13.3041 22.1787C13.3041 21.8187 13.1611 21.4735 12.9066 21.219C12.6521 20.9645 12.3069 20.8215 11.947 20.8215C11.587 20.8215 11.2419 20.9645 10.9873 21.219C10.7328 21.4735 10.5898 21.8187 10.5898 22.1787C10.5898 22.5386 10.7328 22.8838 10.9873 23.1383C11.2419 23.3928 11.587 23.5358 11.947 23.5358ZM19.4113 12.6787C19.4113 13.0386 19.2683 13.3838 19.0138 13.6383C18.7593 13.8928 18.4141 14.0358 18.0541 14.0358C17.6942 14.0358 17.349 13.8928 17.0945 13.6383C16.84 13.3838 16.697 13.0386 16.697 12.6787C16.697 12.3187 16.84 11.9735 17.0945 11.719C17.349 11.4645 17.6942 11.3215 18.0541 11.3215C18.4141 11.3215 18.7593 11.4645 19.0138 11.719C19.2683 11.9735 19.4113 12.3187 19.4113 12.6787ZM18.0541 18.7858C18.4141 18.7858 18.7593 18.6428 19.0138 18.3883C19.2683 18.1338 19.4113 17.7886 19.4113 17.4287C19.4113 17.0687 19.2683 16.7235 19.0138 16.469C18.7593 16.2145 18.4141 16.0715 18.0541 16.0715C17.6942 16.0715 17.349 16.2145 17.0945 16.469C16.84 16.7235 16.697 17.0687 16.697 17.4287C16.697 17.7886 16.84 18.1338 17.0945 18.3883C17.349 18.6428 17.6942 18.7858 18.0541 18.7858ZM18.0541 23.5358C18.4141 23.5358 18.7593 23.3928 19.0138 23.1383C19.2683 22.8838 19.4113 22.5386 19.4113 22.1787C19.4113 21.8187 19.2683 21.4735 19.0138 21.219C18.7593 20.9645 18.4141 20.8215 18.0541 20.8215C17.6942 20.8215 17.349 20.9645 17.0945 21.219C16.84 21.4735 16.697 21.8187 16.697 22.1787C16.697 22.5386 16.84 22.8838 17.0945 23.1383C17.349 23.3928 17.6942 23.5358 18.0541 23.5358Z"
        fill="var(--primary-fill, #999999)"
        stroke="var(--primary-stroke, none)"
        stroke-width="var(--primary-stroke-width, 0)"
    />
</svg>
    