<svg width="18" height="17" viewBox="0 0 18 17" fill="none" xmlns="http://www.w3.org/2000/svg">
    <path fill-rule="evenodd" clip-rule="evenodd"
        d="M7.30413 3.67868C7.30413 4.03861 7.16114 4.38381 6.90663 4.63832C6.65212 4.89283 6.30692 5.03582 5.94699 5.03582C5.58705 5.03582 5.24186 4.89283 4.98734 4.63832C4.73283 4.38381 4.58984 4.03861 4.58984 3.67868C4.58984 3.31874 4.73283 2.97354 4.98734 2.71903C5.24186 2.46452 5.58705 2.32153 5.94699 2.32153C6.30692 2.32153 6.65212 2.46452 6.90663 2.71903C7.16114 2.97354 7.30413 3.31874 7.30413 3.67868ZM5.94699 9.78582C6.30692 9.78582 6.65212 9.64283 6.90663 9.38832C7.16114 9.13381 7.30413 8.78861 7.30413 8.42868C7.30413 8.06874 7.16114 7.72355 6.90663 7.46903C6.65212 7.21452 6.30692 7.07153 5.94699 7.07153C5.58705 7.07153 5.24186 7.21452 4.98734 7.46903C4.73283 7.72355 4.58984 8.06874 4.58984 8.42868C4.58984 8.78861 4.73283 9.13381 4.98734 9.38832C5.24186 9.64283 5.58705 9.78582 5.94699 9.78582ZM5.94699 14.5358C6.30692 14.5358 6.65212 14.3928 6.90663 14.1383C7.16114 13.8838 7.30413 13.5386 7.30413 13.1787C7.30413 12.8187 7.16114 12.4735 6.90663 12.219C6.65212 11.9645 6.30692 11.8215 5.94699 11.8215C5.58705 11.8215 5.24186 11.9645 4.98734 12.219C4.73283 12.4735 4.58984 12.8187 4.58984 13.1787C4.58984 13.5386 4.73283 13.8838 4.98734 14.1383C5.24186 14.3928 5.58705 14.5358 5.94699 14.5358ZM13.4113 3.67868C13.4113 4.03861 13.2683 4.38381 13.0138 4.63832C12.7593 4.89283 12.4141 5.03582 12.0541 5.03582C11.6942 5.03582 11.349 4.89283 11.0945 4.63832C10.84 4.38381 10.697 4.03861 10.697 3.67868C10.697 3.31874 10.84 2.97354 11.0945 2.71903C11.349 2.46452 11.6942 2.32153 12.0541 2.32153C12.4141 2.32153 12.7593 2.46452 13.0138 2.71903C13.2683 2.97354 13.4113 3.31874 13.4113 3.67868ZM12.0541 9.78582C12.4141 9.78582 12.7593 9.64283 13.0138 9.38832C13.2683 9.13381 13.4113 8.78861 13.4113 8.42868C13.4113 8.06874 13.2683 7.72355 13.0138 7.46903C12.7593 7.21452 12.4141 7.07153 12.0541 7.07153C11.6942 7.07153 11.349 7.21452 11.0945 7.46903C10.84 7.72355 10.697 8.06874 10.697 8.42868C10.697 8.78861 10.84 9.13381 11.0945 9.38832C11.349 9.64283 11.6942 9.78582 12.0541 9.78582ZM12.0541 14.5358C12.4141 14.5358 12.7593 14.3928 13.0138 14.1383C13.2683 13.8838 13.4113 13.5386 13.4113 13.1787C13.4113 12.8187 13.2683 12.4735 13.0138 12.219C12.7593 11.9645 12.4141 11.8215 12.0541 11.8215C11.6942 11.8215 11.349 11.9645 11.0945 12.219C10.84 12.4735 10.697 12.8187 10.697 13.1787C10.697 13.5386 10.84 13.8838 11.0945 14.1383C11.349 14.3928 11.6942 14.5358 12.0541 14.5358Z"
        fill="var(--primary-fill, #999999)"
        stroke="var(--primary-stroke, none)"
        stroke-width="var(--primary-stroke-width, 0)" />
</svg>
    