<svg width="38" height="38" viewBox="0 0 38 38" fill="none" xmlns="http://www.w3.org/2000/svg">
    <g clip-path="url(#clip0_2496_3589)">
        <path
            d="M23.4957 11.5623C23.219 11.8389 23.1462 12.0284 23.0912 12.1339C22.7245 12.8373 22.2829 13.065 21.5468 12.3289C21.4745 12.2567 19.2762 9.95837 18.9129 9.5417C18.6757 9.26948 18.3123 9.18615 18.0329 9.39615C17.8218 9.55504 15.7912 11.2145 15.2357 11.9C14.8057 12.4306 14.7912 13.0856 15.1918 13.4867C15.3729 13.6678 15.5957 13.7361 15.8312 13.8078C16.1379 13.9017 16.8107 13.8456 17.2034 14.2384C17.8329 14.8678 17.5034 15.8628 16.694 16.6945C15.8623 17.5039 14.8673 17.8334 14.2379 17.2039C13.8445 16.8106 13.9012 16.1384 13.8073 15.8317C13.7357 15.5961 13.6673 15.3739 13.4862 15.1923C13.0857 14.7917 12.4307 14.8067 11.8995 15.2361C11.2134 15.7917 9.55455 17.8223 9.39566 18.0334C9.1851 18.3128 9.26899 18.6756 9.54121 18.9134C9.95788 19.2767 12.2562 21.475 12.3284 21.5473C13.064 22.2828 12.8368 22.725 12.1334 23.0917C12.0279 23.1467 11.839 23.2189 11.5618 23.4962C10.7495 24.3084 10.7495 25.6256 11.5618 26.4378C12.374 27.25 13.6912 27.25 14.5034 26.4378C14.7801 26.1611 14.8529 25.9717 14.9079 25.8661C15.2745 25.1628 15.7162 24.935 16.4523 25.6712C16.5245 25.7434 18.7229 28.0417 19.0862 28.4584C19.3234 28.7306 19.6868 28.8139 19.9662 28.6039C20.1773 28.445 22.2079 26.7856 22.7634 26.1C23.1934 25.5695 23.2079 24.9145 22.8073 24.5134C22.6262 24.3323 22.4034 24.2639 22.1679 24.1923C21.8612 24.0984 21.1884 24.1545 20.7957 23.7617C20.1662 23.1323 20.4957 22.1373 21.3051 21.3056C22.1368 20.4961 23.1318 20.1667 23.7612 20.7961C24.1545 21.1895 24.0979 21.8617 24.1918 22.1684C24.2634 22.4039 24.3318 22.6261 24.5129 22.8078C24.9134 23.2084 25.5684 23.1934 26.0995 22.7639C26.7857 22.2084 28.4445 20.1778 28.6034 19.9667C28.814 19.6873 28.7301 19.3245 28.4579 19.0867C28.0412 18.7234 25.7429 16.525 25.6707 16.4528C24.9351 15.7173 25.1623 15.275 25.8657 14.9084C25.9712 14.8534 26.1601 14.7811 26.4373 14.5039C27.2495 13.6917 27.2495 12.3745 26.4373 11.5623C25.6251 10.7495 24.3079 10.7495 23.4957 11.5623Z"
            fill="var(--primary-fill, #5C47DE)"
            stroke="var(--primary-stroke, none)"
            stroke-width="var(--primary-stroke-width, 0)" />
    </g>
    <defs>
        <clipPath id="clip0_2496_3589">
            <rect width="20" height="20" fill="white" transform="translate(9 9)" />
        </clipPath>
    </defs>
</svg>