<svg width="38" height="38" viewBox="0 0 38 38" fill="none" xmlns="http://www.w3.org/2000/svg">
    <path
        d="M11.8091 23V13.6909H13.7773V17.5318H17.7727V13.6909H19.7364V23H17.7727V19.1545H13.7773V23H11.8091ZM24.8735 23.1273C24.1947 23.1273 23.5901 23.0106 23.0598 22.7773C22.5325 22.5409 22.1159 22.2167 21.8098 21.8045C21.5068 21.3894 21.3507 20.9106 21.3416 20.3682H23.3235C23.3356 20.5955 23.4098 20.7955 23.5462 20.9682C23.6856 21.1379 23.8704 21.2697 24.1007 21.3636C24.331 21.4576 24.5901 21.5045 24.878 21.5045C25.178 21.5045 25.4432 21.4515 25.6735 21.3455C25.9038 21.2394 26.0841 21.0924 26.2144 20.9045C26.3447 20.7167 26.4098 20.5 26.4098 20.2545C26.4098 20.0061 26.3401 19.7864 26.2007 19.5955C26.0644 19.4015 25.8674 19.25 25.6098 19.1409C25.3553 19.0318 25.0522 18.9773 24.7007 18.9773H23.8325V17.5318H24.7007C24.9977 17.5318 25.2598 17.4803 25.4871 17.3773C25.7174 17.2742 25.8962 17.1318 26.0235 16.95C26.1507 16.7652 26.2144 16.55 26.2144 16.3045C26.2144 16.0712 26.1583 15.8667 26.0462 15.6909C25.9371 15.5121 25.7825 15.3727 25.5825 15.2727C25.3856 15.1727 25.1553 15.1227 24.8916 15.1227C24.625 15.1227 24.381 15.1712 24.1598 15.2682C23.9386 15.3621 23.7613 15.497 23.628 15.6727C23.4947 15.8485 23.4235 16.0545 23.4144 16.2909H21.528C21.5371 15.7545 21.6901 15.2818 21.9871 14.8727C22.2841 14.4636 22.6841 14.1439 23.1871 13.9136C23.6932 13.6803 24.2644 13.5636 24.9007 13.5636C25.5432 13.5636 26.1053 13.6803 26.5871 13.9136C27.0689 14.147 27.4432 14.4621 27.7098 14.8591C27.9795 15.253 28.1128 15.6955 28.1098 16.1864C28.1128 16.7076 27.9507 17.1424 27.6235 17.4909C27.2992 17.8394 26.8765 18.0606 26.3553 18.1545V18.2273C27.0401 18.3152 27.5613 18.553 27.9189 18.9409C28.2795 19.3258 28.4583 19.8076 28.4553 20.3864C28.4583 20.9167 28.3053 21.3879 27.9962 21.8C27.6901 22.2121 27.2674 22.5364 26.728 22.7727C26.1886 23.0091 25.5704 23.1273 24.8735 23.1273Z"
        fill="var(--primary-fill, black)"
        stroke="var(--primary-stroke, none)"
        stroke-width="var(--primary-stroke-width, 0)" />
</svg>