<svg width="38" height="38" viewBox="0 0 38 38" fill="none" xmlns="http://www.w3.org/2000/svg">
    <g clip-path="url(#clip0_2496_3655)">
        <path
            d="M28.3333 7H9.66667C8.194 7 7 8.194 7 9.66667V27.6667H31V9.66667C31 8.194 29.806 7 28.3333 7Z"
            fill="#FFCC4D" />
        <path
            d="M28.409 19.4906C29.467 19.1899 29.467 18.7259 28.4097 18.4246L28.037 18.3219L27.6664 18.2132V18.2166L25.7064 17.6226L27.255 16.3332H27.2457L27.5744 16.1186L27.9057 15.8792C28.7664 15.1972 28.5777 14.7552 27.4864 14.8806L27.0624 14.9399L26.641 14.9999H26.6397L24.6537 15.2259L25.8337 13.1059L26.0397 12.7339C26.5744 11.7739 26.227 11.4252 25.2677 11.9586L24.8957 12.1466L24.525 12.3332H24.5237L22.773 13.3259L22.9997 11.3619V11.3599L23.053 10.9386L23.1044 10.5132C23.2297 9.42389 22.7764 9.23655 22.0937 10.0979L21.831 10.4306L20.3264 12.3306L19.7804 10.4099L19.779 10.4066L19.547 9.58989C19.2464 8.53189 18.7537 8.53189 18.4524 9.58989L18.3364 9.99789L18.2204 10.4066L17.673 12.3306L16.4324 10.7639L16.4317 10.7632L16.1684 10.4306L15.9037 10.0966C15.2217 9.23655 14.7677 9.42522 14.8937 10.5159L14.943 10.9386L14.9917 11.3599V11.3606L15.2224 13.3466L13.1044 12.1666L12.733 11.9599C11.7724 11.4246 11.4244 11.7726 11.959 12.7332L12.1657 13.1039L13.3457 15.2219L11.3597 14.9912H11.359L10.9377 14.9426L10.5144 14.8932C9.42371 14.7672 9.23571 15.2212 10.095 15.9032L10.429 16.1679L10.7617 16.4312L10.7624 16.4319L12.329 17.6726L10.4064 18.2206L9.99838 18.3366L9.59038 18.4526C8.53238 18.7539 8.53238 19.2459 9.59038 19.5472L10.407 19.7792L10.4097 19.7806L12.3304 20.3266L10.4297 21.8319L10.097 22.0959C9.23571 22.7779 9.42304 23.2326 10.5124 23.1072L10.9377 23.0539L11.359 22.9999H11.3604L13.3257 22.7732L12.333 24.5239V24.5252L12.1464 24.8959L11.949 25.2679C11.4157 26.2279 11.7684 26.5746 12.7284 26.0399L13.1017 25.8339L15.225 24.6539L14.9997 26.6399V26.6412L14.9464 27.0626L14.895 27.4859C14.769 28.5772 15.2224 28.7646 15.9044 27.9039L16.1684 27.5706L16.4317 27.2372L17.673 25.6692L18.2197 27.5926V27.5932L18.3357 28.0012L18.4524 28.4099C18.7537 29.4672 19.189 29.4672 19.4904 28.4092L19.6664 27.5932V27.5906L20.2697 25.6692L21.5397 27.2372L21.817 27.5706L22.0884 27.9039C22.7697 28.7639 23.2284 28.5772 23.1024 27.4872L23.0504 27.0626L22.9997 26.6406V26.6386L22.773 24.6739L24.5224 25.6666H24.5237L24.895 25.8532L25.267 26.0499C26.227 26.5852 26.5757 26.2312 26.0404 25.2719L25.8537 24.8979L25.6664 24.5266V24.5252L24.6737 22.7732L26.6384 22.9999H26.6404L27.0624 23.0532L27.487 23.1046C28.577 23.2306 28.7637 22.7766 27.9037 22.0946L27.5704 21.8306L27.237 21.5672L25.669 20.2692L27.5904 19.6666H27.593L28.409 19.4906Z"
            fill="#F4900C" />
        <path
            d="M19.0001 25.4201C22.5457 25.4201 25.4201 22.5457 25.4201 19.0001C25.4201 15.4544 22.5457 12.5801 19.0001 12.5801C15.4544 12.5801 12.5801 15.4544 12.5801 19.0001C12.5801 22.5457 15.4544 25.4201 19.0001 25.4201Z"
            fill="#FFE8B6" />
        <path
            d="M30.9995 28.3333V25.1739C29.0755 22.6319 25.5449 18.3333 23.6662 18.3333C21.8809 18.3333 18.6035 22.2153 16.6309 24.7833V30.9999H28.3329C29.8055 30.9999 30.9995 29.8059 30.9995 28.3333Z"
            fill="#5C913B" />
        <path
            d="M13 22.3333C11.5007 22.3333 8.948 25.0726 7 27.4713V28.3333C7 29.8059 8.194 30.9999 9.66667 30.9999H21.6667C21.6667 30.9999 19.136 27.3459 16.6313 24.7833C15.2793 23.3999 13.9347 22.3333 13 22.3333Z"
            fill="#3E721D" />
    </g>
    <defs>
        <clipPath id="clip0_2496_3655">
            <rect width="24" height="24" fill="white" transform="translate(7 7)" />
        </clipPath>
    </defs>
</svg>