<svg width="38" height="38" viewBox="0 0 38 38" fill="none" xmlns="http://www.w3.org/2000/svg">
    <path
        d="M19.7175 14.1483C19.4237 14.1483 19.1911 14.0443 19.0198 13.8362C18.8484 13.6281 18.7872 13.3771 18.8362 13.0833C18.8851 12.7773 19.0259 12.5202 19.2585 12.3121C19.4911 12.104 19.7665 12 20.0847 12C20.3785 12 20.6111 12.1102 20.7825 12.3305C20.9661 12.5386 21.0334 12.7895 20.9845 13.0833C20.9233 13.3894 20.7764 13.6464 20.5438 13.8545C20.3112 14.0504 20.0358 14.1483 19.7175 14.1483ZM17 25L18.6158 15.8192H20.2133L18.5975 25H17Z"
        fill="var(--primary-fill, black)"
        stroke="var(--primary-stroke, none)"
        stroke-width="var(--primary-stroke-width, 0)" />
</svg>