<svg width="38" height="38" viewBox="0 0 38 38" fill="none" xmlns="http://www.w3.org/2000/svg">
<path d="M27 18.3C27.3866 18.3 27.7 18.6134 27.7 19C27.7 19.3866 27.3866 19.7 27 19.7V18.3ZM11.505 19.495C11.2317 19.2216 11.2317 18.7784 11.505 18.505L15.9598 14.0503C16.2332 13.7769 16.6764 13.7769 16.9497 14.0503C17.2231 14.3236 17.2231 14.7668 16.9497 15.0402L12.9899 19L16.9497 22.9598C17.2231 23.2332 17.2231 23.6764 16.9497 23.9497C16.6764 24.2231 16.2332 24.2231 15.9598 23.9497L11.505 19.495ZM27 19.7H12V18.3H27V19.7Z" 
fill="var(--primary-fill, #E4E4E4)"
stroke="var(--primary-stroke, none)"
stroke-width="var(--primary-stroke-width, 0)"
/>
</svg>
