<svg width="38" height="38" viewBox="0 0 38 38" fill="none" xmlns="http://www.w3.org/2000/svg">
    <g clip-path="url(#clip0_3464_4381)">
        <path
            d="M24.6952 20.7887V19.8617C25.1674 19.3753 26.0713 18.497 26.2965 17.3717C26.3636 17.409 26.3225 17.4331 26.3971 17.4331C26.755 17.4331 26.9902 16.9689 26.9902 16.3956C26.9902 15.8318 26.6804 15.3751 26.3296 15.361C26.3971 15.1173 26.4297 14.7915 26.4297 14.3731C26.4297 12.9772 25.226 11.3013 22.5324 11.3013C20.1392 11.3013 18.6394 12.9772 18.6394 14.3731C18.6394 14.7782 18.6635 15.1107 18.7065 15.368C18.3773 15.4176 18.1176 15.8559 18.1176 16.3951C18.1176 16.9684 18.4076 17.4326 18.766 17.4326C18.8401 17.4326 18.7334 17.4085 18.8 17.3712C19.0252 18.497 19.973 19.3749 20.4452 19.8617V20.7339C18.5563 20.9662 17.1396 21.9749 17.1396 22.984V23.3665C17.1396 23.75 17.5283 23.75 17.9113 23.75H26.756C27.1399 23.75 27.5285 23.75 27.5285 23.3665V22.984C27.5285 22.0391 26.1119 21.0966 24.6952 20.7887Z"
            fill="var(--primary-fill, #55ACEE)"
            stroke="var(--primary-stroke, none)"
            stroke-width="var(--primary-stroke-width, 0)" />
        <path
            d="M19.0282 24.5665V23.6395C19.5004 23.1532 20.4043 22.2748 20.6295 21.1495C20.6966 21.1868 20.6555 21.2109 20.7301 21.2109C21.088 21.2109 21.3232 20.7467 21.3232 20.1734C21.3232 19.6096 21.0134 19.153 20.6626 19.1388C20.7301 18.8951 20.7627 18.5693 20.7627 18.1509C20.7627 16.755 19.559 15.0791 16.8654 15.0791C14.4717 15.0791 12.9724 16.755 12.9724 18.1509C12.9724 18.5561 12.9965 18.8885 13.0395 19.1459C12.7104 19.1955 12.4506 19.6337 12.4506 20.173C12.4506 20.7462 12.7406 21.2104 13.099 21.2104C13.1731 21.2104 13.0664 21.1864 13.133 21.149C13.3582 22.2748 14.306 23.1527 14.7782 23.6395V24.5117C12.8893 24.7441 11.4727 25.7527 11.4727 26.7619V27.1449C11.4727 27.5278 11.8613 27.5278 12.2443 27.5278H21.089C21.4729 27.5278 21.8615 27.5278 21.8615 27.1444V26.7614C21.8615 25.817 20.4449 24.8744 19.0282 24.5665Z"
            fill="var(--secondary-fill, #226699)"
            stroke="var(--secondary-stroke, none)"
            stroke-width="var(--secondary-stroke-width, 0)"
        />
    </g>
    <defs>
        <clipPath id="clip0_3464_4381">
            <rect width="17" height="17" fill="white" transform="translate(11 11)" />
        </clipPath>
    </defs>
</svg>
    