<svg width="38" height="38" viewBox="0 0 38 38" fill="none" xmlns="http://www.w3.org/2000/svg">
    <path
        d="M12.391 15.7899C12.7175 15.7899 12.9353 15.6056 12.9353 15.2292V12.5256C12.9353 12.1738 12.6839 11.9478 12.3243 11.9478C12.0228 11.9478 11.8385 12.0481 11.6293 12.1906L11.0435 12.6006C10.8675 12.7178 10.7757 12.8267 10.7757 13.0024C10.7757 13.2203 10.9514 13.3706 11.1435 13.3706C11.2443 13.3706 11.3028 13.3538 11.4453 13.2535L11.8303 12.9942H11.8385V15.2288C11.8385 15.6056 12.0646 15.7899 12.391 15.7899ZM15.2957 14.7767H26.755C27.14 14.7767 27.4328 14.4838 27.4328 14.107C27.4328 13.722 27.14 13.4288 26.755 13.4288H15.2957C14.9189 13.4288 14.626 13.7217 14.626 14.107C14.626 14.4835 14.9189 14.7767 15.2957 14.7767ZM11.0435 20.8374H13.1946C13.4289 20.8374 13.5964 20.6781 13.5964 20.4438C13.5964 20.1928 13.4289 20.0338 13.1946 20.0338H11.9978V20.0088L12.6839 19.456C13.2614 18.9874 13.4793 18.7195 13.4793 18.2256C13.4793 17.556 12.9185 17.1042 12.0143 17.1042C11.2193 17.1042 10.6332 17.5224 10.6332 18.0581C10.6332 18.326 10.8089 18.4685 11.0939 18.4685C11.286 18.4685 11.42 18.4099 11.5289 18.2174C11.646 18.0163 11.805 17.9074 12.031 17.9074C12.2821 17.9074 12.4496 18.0667 12.4496 18.301C12.4496 18.502 12.3493 18.6778 11.9225 19.021L10.8175 19.9245C10.6585 20.0588 10.5914 20.2095 10.5914 20.3935C10.5914 20.6531 10.7671 20.8374 11.0435 20.8374ZM15.2957 19.8406H26.755C26.8443 19.8417 26.9329 19.8249 27.0156 19.7912C27.0983 19.7575 27.1735 19.7076 27.2366 19.6444C27.2998 19.5813 27.3497 19.5061 27.3834 19.4234C27.4171 19.3407 27.4339 19.2521 27.4328 19.1628C27.4328 18.786 27.14 18.4931 26.755 18.4931H15.2957C15.2074 18.4919 15.1198 18.5084 15.038 18.5416C14.9562 18.5749 14.8819 18.6241 14.8195 18.6866C14.7571 18.749 14.7078 18.8233 14.6746 18.9051C14.6413 18.9869 14.6248 19.0745 14.626 19.1628C14.626 19.5395 14.9189 19.8406 15.2957 19.8406ZM12.0396 26.0524C13.0271 26.0524 13.6218 25.6088 13.6218 24.906C13.6218 24.4453 13.295 24.1274 12.7175 24.077V24.052C13.1443 23.9767 13.471 23.692 13.471 23.2063C13.471 22.5706 12.8514 22.2188 12.031 22.2188C11.37 22.2188 10.6585 22.5285 10.6585 23.081C10.6585 23.3153 10.8257 23.4828 11.0853 23.4828C11.2693 23.4828 11.3532 23.4074 11.4703 23.2817C11.6628 23.0724 11.8218 23.0056 12.0228 23.0056C12.2821 23.0056 12.4746 23.131 12.4746 23.382C12.4746 23.6167 12.2821 23.7338 11.9389 23.7338H11.8389C11.6043 23.7338 11.4535 23.851 11.4535 24.0938C11.4535 24.3199 11.5957 24.4538 11.8385 24.4538H11.9475C12.3243 24.4538 12.525 24.5792 12.525 24.8388C12.525 25.0649 12.3157 25.232 12.0393 25.232C11.7382 25.232 11.5289 25.0649 11.37 24.9056C11.2693 24.8135 11.1857 24.7467 11.035 24.7467C10.7589 24.7467 10.5664 24.9056 10.5664 25.1653C10.5664 25.7428 11.3532 26.0524 12.0396 26.0524ZM15.2957 24.8974H26.755C27.14 24.8974 27.4328 24.6045 27.4328 24.2278C27.4328 23.8428 27.14 23.5495 26.755 23.5495H15.2957C14.9189 23.5495 14.626 23.8424 14.626 24.2278C14.626 24.6042 14.9189 24.8974 15.2957 24.8974Z"
        fill="var(--primary-fill, black)"
        stroke="var(--primary-stroke, none)"
        stroke-width="var(--primary-stroke-width, 0)" />
</svg>