<svg width="38" height="38" viewBox="0 0 38 38" fill="none" xmlns="http://www.w3.org/2000/svg">
    <g clip-path="url(#clip0_3510_1583)">
        <path
            d="M25.3623 15.5267L21.1123 11.2767C20.9419 11.1063 20.7053 11 20.4441 11C19.9228 11 19.5002 11.4231 19.4997 11.9444C19.4997 12.2051 19.6055 12.4417 19.7764 12.6126L17.9541 14.4349L22.2041 18.6849L24.0264 16.8626C24.1974 17.0331 24.4335 17.1389 24.6941 17.1389C25.2155 17.1389 25.639 16.7158 25.6386 16.1944C25.6386 15.9338 25.5328 15.6977 25.3623 15.5267Z"
            fill="#E1E8ED" />
        <path
            d="M20.4449 11H13.3615C12.3184 11 11.4727 11.8457 11.4727 12.8889V26.1111C11.4727 27.1542 12.3184 28 13.3615 28H23.7504C24.7936 28 25.6393 27.1542 25.6393 26.1111V16.1944H21.3893C20.9171 16.1944 20.4449 15.7222 20.4449 15.25V11Z"
            fill="#CCD6DD" />
        <path
            d="M20.4447 11H19.5002V15.25C19.5002 16.2931 20.346 17.1389 21.3891 17.1389H25.6391V16.1944H21.3891C20.9169 16.1944 20.4447 15.7222 20.4447 15.25V11ZM18.0836 14.7778C18.0836 15.0384 17.872 15.25 17.6113 15.25H13.8336C13.5729 15.25 13.3613 15.0384 13.3613 14.7778C13.3613 14.5171 13.5729 14.3056 13.8336 14.3056H17.6113C17.872 14.3056 18.0836 14.5171 18.0836 14.7778ZM18.0836 16.6667C18.0836 16.9273 17.872 17.1389 17.6113 17.1389H13.8336C13.5729 17.1389 13.3613 16.9273 13.3613 16.6667C13.3613 16.406 13.5729 16.1944 13.8336 16.1944H17.6113C17.872 16.1944 18.0836 16.406 18.0836 16.6667ZM23.7502 18.5556C23.7502 18.8162 23.5391 19.0278 23.278 19.0278H13.8336C13.5729 19.0278 13.3613 18.8162 13.3613 18.5556C13.3613 18.2949 13.5729 18.0833 13.8336 18.0833H23.278C23.5391 18.0833 23.7502 18.2949 23.7502 18.5556ZM23.7502 20.4444C23.7502 20.7056 23.5391 20.9167 23.278 20.9167H13.8336C13.5729 20.9167 13.3613 20.7056 13.3613 20.4444C13.3613 20.1833 13.5729 19.9722 13.8336 19.9722H23.278C23.5391 19.9722 23.7502 20.1833 23.7502 20.4444ZM23.7502 22.3333C23.7502 22.5945 23.5391 22.8056 23.278 22.8056H13.8336C13.5729 22.8056 13.3613 22.5945 13.3613 22.3333C13.3613 22.0722 13.5729 21.8611 13.8336 21.8611H23.278C23.5391 21.8611 23.7502 22.0722 23.7502 22.3333ZM23.7502 24.2222C23.7502 24.4834 23.5391 24.6944 23.278 24.6944H13.8336C13.5729 24.6944 13.3613 24.4834 13.3613 24.2222C13.3613 23.9611 13.5729 23.75 13.8336 23.75H23.278C23.5391 23.75 23.7502 23.9611 23.7502 24.2222Z"
            fill="#99AAB5" />
        <path
            d="M25.6387 19.9723C25.6387 19.9723 22.8498 19.9714 22.8361 19.9723C22.6987 19.9723 22.4063 20.0545 22.2434 20.2585L21.1441 21.6416C20.84 22.0237 20.84 22.6423 21.1441 23.0253L22.2434 24.4084C22.4063 24.6124 22.6987 24.6946 22.8361 24.6946C22.845 24.6955 24.511 24.6946 25.6387 24.6946V19.9723Z"
            fill="#66757F" />
        <path
            d="M26.5828 19.9723C26.5828 19.9723 22.7786 19.9714 22.7654 19.9723C22.628 19.9723 22.3357 20.038 22.1728 20.2014L21.0734 21.3073C20.7698 21.6128 20.7698 22.1077 21.0734 22.4142L22.1728 23.5201C22.3357 23.6835 22.628 23.7501 22.7654 23.7501C22.7786 23.7511 26.5828 23.7501 26.5828 23.7501C27.1042 23.7501 27.5273 23.3265 27.5273 22.8052V20.9168C27.5273 20.3955 27.1042 19.9723 26.5828 19.9723Z"
            fill="var(--primary-fill, #744EAA)"
            stroke="var(--primary-stroke, none)"
            stroke-width="var(--primary-stroke-width, 0)"
        />
    </g>
    <defs>
        <clipPath id="clip0_3510_1583">
            <rect width="17" height="17" fill="white" transform="translate(11 11)" />
        </clipPath>
    </defs>
</svg>
    