<svg width="38" height="38" viewBox="0 0 38 38" fill="none" xmlns="http://www.w3.org/2000/svg">
<path d="M24.2917 19.25C23.927 19.25 23.5773 19.1051 23.3194 18.8473C23.0615 18.5894 22.9167 18.2397 22.9167 17.875C22.9167 17.5103 23.0615 17.1606 23.3194 16.9027C23.5773 16.6449 23.927 16.5 24.2917 16.5C24.6563 16.5 25.0061 16.6449 25.2639 16.9027C25.5218 17.1606 25.6667 17.5103 25.6667 17.875C25.6667 18.2397 25.5218 18.5894 25.2639 18.8473C25.0061 19.1051 24.6563 19.25 24.2917 19.25ZM21.5417 15.5833C21.177 15.5833 20.8273 15.4385 20.5694 15.1806C20.3115 14.9227 20.1667 14.573 20.1667 14.2083C20.1667 13.8437 20.3115 13.4939 20.5694 13.2361C20.8273 12.9782 21.177 12.8333 21.5417 12.8333C21.9063 12.8333 22.2561 12.9782 22.5139 13.2361C22.7718 13.4939 22.9167 13.8437 22.9167 14.2083C22.9167 14.573 22.7718 14.9227 22.5139 15.1806C22.2561 15.4385 21.9063 15.5833 21.5417 15.5833ZM16.9583 15.5833C16.5937 15.5833 16.2439 15.4385 15.9861 15.1806C15.7282 14.9227 15.5833 14.573 15.5833 14.2083C15.5833 13.8437 15.7282 13.4939 15.9861 13.2361C16.2439 12.9782 16.5937 12.8333 16.9583 12.8333C17.323 12.8333 17.6727 12.9782 17.9306 13.2361C18.1885 13.4939 18.3333 13.8437 18.3333 14.2083C18.3333 14.573 18.1885 14.9227 17.9306 15.1806C17.6727 15.4385 17.323 15.5833 16.9583 15.5833ZM14.2083 19.25C13.8437 19.25 13.4939 19.1051 13.2361 18.8473C12.9782 18.5894 12.8333 18.2397 12.8333 17.875C12.8333 17.5103 12.9782 17.1606 13.2361 16.9027C13.4939 16.6449 13.8437 16.5 14.2083 16.5C14.573 16.5 14.9227 16.6449 15.1806 16.9027C15.4385 17.1606 15.5833 17.5103 15.5833 17.875C15.5833 18.2397 15.4385 18.5894 15.1806 18.8473C14.9227 19.1051 14.573 19.25 14.2083 19.25ZM19.25 11C17.062 11 14.9635 11.8692 13.4164 13.4164C11.8692 14.9635 11 17.062 11 19.25C11 21.438 11.8692 23.5365 13.4164 25.0836C14.9635 26.6308 17.062 27.5 19.25 27.5C19.6147 27.5 19.9644 27.3551 20.2223 27.0973C20.4801 26.8394 20.625 26.4897 20.625 26.125C20.625 25.7675 20.4875 25.4467 20.2675 25.2083C20.0567 24.9608 19.9192 24.64 19.9192 24.2917C19.9192 23.927 20.064 23.5773 20.3219 23.3194C20.5798 23.0615 20.9295 22.9167 21.2942 22.9167H22.9167C24.1322 22.9167 25.298 22.4338 26.1576 21.5742C27.0171 20.7147 27.5 19.5489 27.5 18.3333C27.5 14.2817 23.8058 11 19.25 11Z" 
fill="var(--primary-fill, #E4E4E4)"
stroke="var(--primary-stroke, none)"
stroke-width="var(--primary-stroke-width, 0)"
/>
</svg>
