<svg width="38" height="38" viewBox="0 0 38 38" fill="none" xmlns="http://www.w3.org/2000/svg">
<rect x="6" y="10" width="1" height="18" rx="0.5" fill="black"/>
<path d="M10.1352 13.9999V13.8099C10.4752 13.7699 10.5152 13.7349 10.5152 13.4649V11.0249C10.5152 10.7549 10.4752 10.7199 10.1352 10.6799V10.4899H12.9402L12.9652 11.4249H12.7952C12.5452 10.8699 12.4052 10.7049 11.9802 10.7049H11.3652V12.0649H11.9302C12.1602 12.0649 12.2252 11.9349 12.2702 11.6049H12.4652V12.7699H12.2702C12.2252 12.4399 12.1602 12.3149 11.9302 12.3149H11.3652V13.4449C11.3652 13.7149 11.5002 13.7849 11.7952 13.7849H12.0402C12.4652 13.7849 12.5902 13.5799 12.9402 12.9549H13.1352L12.9802 13.9999H10.1352Z" fill="black" fill-opacity="0.3"/>
<path d="M14.918 13.5099L14.453 12.8699L13.983 13.4999C13.933 13.5649 13.913 13.6149 13.913 13.6599C13.913 13.7549 14.028 13.8099 14.223 13.8199V13.9999H13.243V13.8199C13.408 13.7749 13.518 13.7099 13.588 13.6199L14.308 12.6699L13.613 11.7049C13.553 11.6149 13.503 11.5649 13.348 11.5099V11.3299H14.733V11.5099C14.573 11.5199 14.488 11.5599 14.488 11.6399C14.488 11.6849 14.513 11.7449 14.563 11.8199L14.928 12.3249L15.298 11.8299C15.353 11.7549 15.383 11.6949 15.383 11.6449C15.383 11.5649 15.298 11.5249 15.133 11.5099V11.3299H16.023V11.5099C15.853 11.5499 15.758 11.6199 15.688 11.7099L15.068 12.5199L15.868 13.6249C15.933 13.7199 15.998 13.7749 16.158 13.8199V13.9999H14.723V13.8199C14.903 13.8099 15.003 13.7799 15.003 13.6949C15.003 13.6499 14.973 13.5899 14.918 13.5099Z" fill="black" fill-opacity="0.3"/>
<path d="M17.445 11.2799C18.14 11.2799 18.5 11.7299 18.5 12.3499V12.4649H16.885C16.87 13.1199 17.215 13.5099 17.685 13.5099C18.02 13.5099 18.25 13.3799 18.435 13.1249L18.52 13.1749C18.39 13.6999 18.015 14.0499 17.41 14.0499C16.68 14.0499 16.16 13.5349 16.16 12.7299C16.16 11.8549 16.74 11.2799 17.445 11.2799ZM17.39 11.4749C17.085 11.4749 16.925 11.7999 16.895 12.2599H17.795C17.795 11.7849 17.685 11.4749 17.39 11.4749Z" fill="black" fill-opacity="0.3"/>
<path d="M19.4527 12.4349C19.4527 13.0799 19.7477 13.4949 20.2527 13.4949C20.5527 13.4949 20.7727 13.3799 20.9327 13.1449L21.0327 13.1999C20.8727 13.7749 20.4877 14.0499 19.9527 14.0499C19.2677 14.0499 18.7577 13.5499 18.7577 12.7499C18.7577 11.9099 19.2777 11.2799 20.0877 11.2799C20.5827 11.2799 20.9577 11.4749 20.9577 11.8849C20.9577 12.0599 20.8627 12.1849 20.7527 12.2349H20.3277C20.3377 12.1399 20.3477 12.0599 20.3477 11.9699C20.3477 11.6949 20.2627 11.4849 20.0027 11.4849C19.6577 11.4849 19.4527 11.8999 19.4527 12.4349Z" fill="black" fill-opacity="0.3"/>
<path d="M23.8437 11.8899V13.4499C23.8437 13.6199 23.8587 13.6849 24.0337 13.6949L24.1537 13.6999V13.8749L23.1737 14.0499H23.0287L23.0437 13.5699C22.8487 13.7999 22.5837 14.0499 22.1637 14.0499C21.7187 14.0499 21.4237 13.7949 21.4237 13.2249V11.9599C21.4237 11.8049 21.3887 11.7149 21.2087 11.6749L21.1337 11.6599V11.4899L22.1187 11.2849H22.2537L22.2287 11.8999V13.1349C22.2287 13.4149 22.3337 13.5799 22.5937 13.5799C22.7687 13.5799 22.8937 13.5149 23.0437 13.4349V11.9599C23.0437 11.8049 23.0087 11.7149 22.8287 11.6749L22.7537 11.6599V11.4899L23.7337 11.2849H23.8737L23.8437 11.8899Z" fill="black" fill-opacity="0.3"/>
<path d="M25.3389 10.6649V11.3299H25.9589V11.5799H25.3389V13.2349C25.3389 13.5099 25.4439 13.6249 25.6589 13.6249C25.7889 13.6249 25.9039 13.5799 26.0239 13.4899L26.0939 13.5899C25.9189 13.8699 25.6539 14.0499 25.2739 14.0499C24.8439 14.0499 24.5339 13.8299 24.5339 13.2549V11.5799H24.2339V11.4399C24.6039 11.2849 24.9339 10.9999 25.1689 10.6649H25.3389Z" fill="black" fill-opacity="0.3"/>
<path d="M27.3039 11.2799V13.6149C27.3039 13.7799 27.3839 13.8049 27.5989 13.8199V13.9999H26.2039V13.8199C26.4189 13.8049 26.4989 13.7799 26.4989 13.6149V11.8499L26.2089 11.6749V11.5599L27.1689 11.2799H27.3039ZM26.8989 11.0149C26.6289 11.0149 26.4539 10.8199 26.4539 10.5899C26.4539 10.3599 26.6289 10.1599 26.8989 10.1599C27.1689 10.1599 27.3489 10.3599 27.3489 10.5899C27.3489 10.8199 27.1689 11.0149 26.8989 11.0149Z" fill="black" fill-opacity="0.3"/>
<path d="M29.146 13.8549C29.481 13.8549 29.616 13.4499 29.616 12.8049C29.616 12.0249 29.471 11.4749 29.106 11.4749C28.771 11.4749 28.636 11.8799 28.636 12.5249C28.636 13.3049 28.781 13.8549 29.146 13.8549ZM29.121 14.0499C28.326 14.0499 27.786 13.5249 27.786 12.7199C27.786 11.8749 28.351 11.2799 29.131 11.2799C29.926 11.2799 30.471 11.8049 30.471 12.6099C30.471 13.4549 29.901 14.0499 29.121 14.0499Z" fill="black" fill-opacity="0.3"/>
<path d="M32.6414 13.6149V12.1549C32.6414 11.8949 32.5464 11.7599 32.2814 11.7599C32.0964 11.7599 31.9264 11.8299 31.7864 11.9199V13.6149C31.7864 13.7799 31.8564 13.8049 32.0714 13.8199V13.9999H30.6864V13.8199C30.9014 13.8049 30.9814 13.7799 30.9814 13.6149V11.8499L30.6914 11.6749V11.5599L31.6564 11.2799H31.8064L31.7864 11.7749C31.9864 11.5299 32.2714 11.2799 32.7114 11.2799C33.1864 11.2799 33.4464 11.5499 33.4464 12.0949V13.6149C33.4464 13.7799 33.5264 13.8049 33.7414 13.8199V13.9999H32.3564V13.8199C32.5714 13.8049 32.6414 13.7799 32.6414 13.6149Z" fill="black" fill-opacity="0.3"/>
<path d="M10.1502 16.4899H13.3052L13.3802 17.6949H13.2002C12.8602 16.9299 12.7302 16.6799 12.3702 16.6799H12.1552V19.4849C12.1552 19.7549 12.2502 19.7699 12.5852 19.8099V19.9999H10.8702V19.8099C11.2052 19.7699 11.3052 19.7549 11.3052 19.4849V16.6799H11.0852C10.7252 16.6799 10.5952 16.9299 10.2552 17.6949H10.0752L10.1502 16.4899Z" fill="black" fill-opacity="0.3"/>
<path d="M14.6672 18.2049V19.5549C14.6672 19.7649 14.7772 19.7899 15.0772 19.8199V19.9999H13.5672V19.8199C13.7822 19.8049 13.8622 19.7799 13.8622 19.6149V17.8499L13.5722 17.6749V17.5599L14.5372 17.2799H14.6872L14.6672 18.0349C14.8872 17.4699 15.0472 17.2799 15.3522 17.2799C15.4622 17.2799 15.5422 17.3149 15.5872 17.3649V17.9749H15.4822C15.1672 17.9749 14.9072 17.9899 14.6672 18.2049Z" fill="black" fill-opacity="0.3"/>
<path d="M18.414 17.8899V19.4499C18.414 19.6199 18.429 19.6849 18.604 19.6949L18.724 19.6999V19.8749L17.744 20.0499H17.599L17.614 19.5699C17.419 19.7999 17.154 20.0499 16.734 20.0499C16.289 20.0499 15.994 19.7949 15.994 19.2249V17.9599C15.994 17.8049 15.959 17.7149 15.779 17.6749L15.704 17.6599V17.4899L16.689 17.2849H16.824L16.799 17.8999V19.1349C16.799 19.4149 16.904 19.5799 17.164 19.5799C17.339 19.5799 17.464 19.5149 17.614 19.4349V17.9599C17.614 17.8049 17.579 17.7149 17.399 17.6749L17.324 17.6599V17.4899L18.304 17.2849H18.444L18.414 17.8899Z" fill="black" fill-opacity="0.3"/>
<path d="M22.3793 19.6149V18.1449C22.3793 17.8899 22.2943 17.7549 22.0493 17.7549C21.8743 17.7549 21.7293 17.8299 21.5893 17.9199V19.6149C21.5893 19.7799 21.6493 19.8049 21.8643 19.8199V19.9999H20.5143V19.8199C20.7293 19.8049 20.7843 19.7799 20.7843 19.6149V18.1449C20.7843 17.8899 20.6993 17.7549 20.4593 17.7549C20.2793 17.7549 20.1393 17.8299 19.9993 17.9199V19.6149C19.9993 19.7799 20.0543 19.8049 20.2743 19.8199V19.9999H18.8993V19.8199C19.1143 19.8049 19.1943 19.7799 19.1943 19.6149V17.8499L18.9043 17.6749V17.5599L19.8693 17.2799H20.0193L19.9993 17.7799C20.1943 17.5099 20.4643 17.2799 20.8943 17.2799C21.2693 17.2799 21.4993 17.4349 21.5643 17.7899C21.7593 17.5249 22.0593 17.2799 22.4843 17.2799C22.9393 17.2799 23.1843 17.5499 23.1843 18.0799V19.6149C23.1843 19.7799 23.2643 19.8049 23.4793 19.8199V19.9999H22.1043V19.8199C22.3193 19.8049 22.3793 19.7799 22.3793 19.6149Z" fill="black" fill-opacity="0.3"/>
<path d="M25.1055 19.8399C25.5005 19.8399 25.7255 19.3649 25.7255 18.7599C25.7255 18.1249 25.4955 17.7599 25.0705 17.7599C24.9355 17.7599 24.8005 17.8099 24.6955 17.8899V19.2849C24.6955 19.6399 24.8155 19.8399 25.1055 19.8399ZM23.8955 20.6749V17.8499L23.6055 17.6749V17.5599L24.5705 17.2799H24.7155L24.6955 17.7549C24.8505 17.5199 25.1255 17.2799 25.5355 17.2799C26.1355 17.2799 26.5405 17.7099 26.5405 18.4999C26.5405 19.4999 25.9355 20.0499 25.1655 20.0499C24.9705 20.0499 24.7955 20.0099 24.6955 19.9299V20.6549C24.6955 20.8399 24.7905 20.8549 25.0955 20.8799V21.0599H23.5955V20.8799C23.8155 20.8649 23.8955 20.8399 23.8955 20.6749Z" fill="black" fill-opacity="0.3"/>
<path d="M27.795 20.0499C27.395 20.0499 27.075 19.9499 26.87 19.7999L26.84 19.1199H27.045C27.15 19.5399 27.41 19.8599 27.795 19.8599C28.045 19.8599 28.245 19.7349 28.245 19.4849C28.245 19.2199 28.055 19.1299 27.685 18.9999C27.14 18.8199 26.85 18.5949 26.85 18.1149C26.85 17.5799 27.25 17.2799 27.83 17.2799C28.16 17.2799 28.45 17.3649 28.66 17.4999V18.1049H28.47C28.4 17.7599 28.185 17.4699 27.835 17.4699C27.6 17.4699 27.45 17.6049 27.45 17.8049C27.45 18.0299 27.605 18.1299 27.965 18.2549C28.53 18.4499 28.85 18.6549 28.85 19.1749C28.85 19.7299 28.435 20.0499 27.795 20.0499Z" fill="black" fill-opacity="0.3"/>
<path d="M10.1352 25.9999V25.8099C10.4752 25.7699 10.5152 25.7349 10.5152 25.4649V23.0249C10.5152 22.7549 10.4752 22.7199 10.1352 22.6799V22.4899H12.9402L12.9652 23.4249H12.7952C12.5452 22.8699 12.4052 22.7049 11.9802 22.7049H11.3652V24.0649H11.9302C12.1602 24.0649 12.2252 23.9349 12.2702 23.6049H12.4652V24.7699H12.2702C12.2252 24.4399 12.1602 24.3149 11.9302 24.3149H11.3652V25.4449C11.3652 25.7149 11.5002 25.7849 11.7952 25.7849H12.0402C12.4652 25.7849 12.5902 25.5799 12.9402 24.9549H13.1352L12.9802 25.9999H10.1352Z" fill="black" fill-opacity="0.3"/>
<path d="M16.0541 23.3299V23.5099C15.8741 23.5599 15.8441 23.5949 15.7991 23.7049L14.7891 26.0299H14.5641L13.4491 23.7049C13.3991 23.5949 13.3691 23.5599 13.1941 23.5099V23.3299H14.6691V23.5099C14.4091 23.5399 14.3341 23.5699 14.3341 23.6799C14.3341 23.7249 14.3441 23.7549 14.3691 23.8199L14.9341 25.0999L15.4641 23.8199C15.4891 23.7499 15.4991 23.7249 15.4991 23.6799C15.4991 23.5699 15.4241 23.5449 15.1641 23.5099V23.3299H16.0541Z" fill="black" fill-opacity="0.3"/>
<path d="M17.2888 23.2799C17.9838 23.2799 18.3438 23.7299 18.3438 24.3499V24.4649H16.7288C16.7138 25.1199 17.0587 25.5099 17.5287 25.5099C17.8637 25.5099 18.0938 25.3799 18.2788 25.1249L18.3638 25.1749C18.2338 25.6999 17.8587 26.0499 17.2537 26.0499C16.5237 26.0499 16.0037 25.5349 16.0037 24.7299C16.0037 23.8549 16.5838 23.2799 17.2888 23.2799ZM17.2337 23.4749C16.9287 23.4749 16.7687 23.7999 16.7387 24.2599H17.6388C17.6388 23.7849 17.5287 23.4749 17.2337 23.4749Z" fill="black" fill-opacity="0.3"/>
<path d="M19.6526 24.2049V25.5549C19.6526 25.7649 19.7626 25.7899 20.0626 25.8199V25.9999H18.5526V25.8199C18.7676 25.8049 18.8476 25.7799 18.8476 25.6149V23.8499L18.5576 23.6749V23.5599L19.5226 23.2799H19.6726L19.6526 24.0349C19.8726 23.4699 20.0326 23.2799 20.3376 23.2799C20.4476 23.2799 20.5276 23.3149 20.5726 23.3649V23.9749H20.4676C20.1526 23.9749 19.8926 23.9899 19.6526 24.2049Z" fill="black" fill-opacity="0.3"/>
<path d="M22.3852 25.1999L22.9152 23.8249C22.9402 23.7599 22.9552 23.7249 22.9552 23.6799C22.9552 23.5699 22.8752 23.5399 22.6202 23.5099V23.3299H23.5002V23.5099C23.3252 23.5599 23.2902 23.5949 23.2452 23.7049L22.1252 26.4549C21.9552 26.8749 21.7752 27.0999 21.4402 27.0999C21.2552 27.0999 21.1002 27.0199 21.0352 26.8849V26.5799C21.1502 26.6049 21.2502 26.6249 21.4002 26.6249C21.6752 26.6249 21.8302 26.5499 21.9302 26.3049L22.0102 26.1099L20.9052 23.7049C20.8552 23.5949 20.8252 23.5599 20.6502 23.5099V23.3299H22.1252V23.5099C21.8652 23.5399 21.7902 23.5699 21.7902 23.6799C21.7902 23.7249 21.8002 23.7599 21.8202 23.8199L22.3852 25.1999Z" fill="black" fill-opacity="0.3"/>
<path d="M24.6456 22.6649V23.3299H25.2656V23.5799H24.6456V25.2349C24.6456 25.5099 24.7506 25.6249 24.9656 25.6249C25.0956 25.6249 25.2106 25.5799 25.3306 25.4899L25.4006 25.5899C25.2256 25.8699 24.9606 26.0499 24.5806 26.0499C24.1506 26.0499 23.8406 25.8299 23.8406 25.2549V23.5799H23.5406V23.4399C23.9106 23.2849 24.2406 22.9999 24.4756 22.6649H24.6456Z" fill="black" fill-opacity="0.3"/>
<path d="M25.7856 25.6149V22.5949L25.5006 22.4449V22.3199L26.4606 22.0849H26.5906V23.7749C26.7906 23.5299 27.0806 23.2799 27.5156 23.2799C27.9906 23.2799 28.2506 23.5549 28.2506 24.0999V25.6149C28.2506 25.7799 28.3306 25.8049 28.5456 25.8199V25.9999H27.1606V25.8199C27.3756 25.8049 27.4456 25.7799 27.4456 25.6149V24.1549C27.4456 23.8949 27.3506 23.7599 27.0856 23.7599C26.9006 23.7599 26.7356 23.8299 26.5906 23.9199V25.6149C26.5906 25.7799 26.6606 25.8049 26.8756 25.8199V25.9999H25.4906V25.8199C25.7056 25.8049 25.7856 25.7799 25.7856 25.6149Z" fill="black" fill-opacity="0.3"/>
<path d="M29.8039 23.2799V25.6149C29.8039 25.7799 29.8839 25.8049 30.0989 25.8199V25.9999H28.7039V25.8199C28.9189 25.8049 28.9989 25.7799 28.9989 25.6149V23.8499L28.7089 23.6749V23.5599L29.6689 23.2799H29.8039ZM29.3989 23.0149C29.1289 23.0149 28.9539 22.8199 28.9539 22.5899C28.9539 22.3599 29.1289 22.1599 29.3989 22.1599C29.6689 22.1599 29.8489 22.3599 29.8489 22.5899C29.8489 22.8199 29.6689 23.0149 29.3989 23.0149Z" fill="black" fill-opacity="0.3"/>
<path d="M32.241 25.6149V24.1549C32.241 23.8949 32.146 23.7599 31.881 23.7599C31.696 23.7599 31.526 23.8299 31.386 23.9199V25.6149C31.386 25.7799 31.456 25.8049 31.671 25.8199V25.9999H30.286V25.8199C30.501 25.8049 30.581 25.7799 30.581 25.6149V23.8499L30.291 23.6749V23.5599L31.256 23.2799H31.406L31.386 23.7749C31.586 23.5299 31.871 23.2799 32.311 23.2799C32.786 23.2799 33.046 23.5499 33.046 24.0949V25.6149C33.046 25.7799 33.126 25.8049 33.341 25.8199V25.9999H31.956V25.8199C32.171 25.8049 32.241 25.7799 32.241 25.6149Z" fill="black" fill-opacity="0.3"/>
<path d="M34.6489 25.0549C34.4689 25.0549 34.2889 25.0299 34.1239 24.9749C34.0389 25.0549 33.9639 25.1499 33.9639 25.2499C33.9639 25.3449 34.0239 25.4099 34.1289 25.4099H35.1839C35.8089 25.4099 36.1039 25.6749 36.1039 26.1249C36.1039 26.7599 35.4789 27.1149 34.6139 27.1149C33.8539 27.1149 33.3839 26.8949 33.3839 26.4949C33.3839 26.2399 33.6189 26.1099 33.8489 26.0549C33.6439 25.9749 33.5289 25.7899 33.5289 25.5799C33.5289 25.2699 33.7589 25.0699 34.0089 24.9249C33.7339 24.7999 33.5339 24.5699 33.5339 24.2099C33.5339 23.6249 34.0189 23.2799 34.6789 23.2799C34.8689 23.2799 35.0089 23.3099 35.1339 23.3499L36.0039 23.3299V23.6399H35.7889L35.4589 23.6249C35.6389 23.7449 35.7739 23.9499 35.7739 24.1999C35.7739 24.7399 35.2989 25.0549 34.6489 25.0549ZM35.1989 26.1449H33.9389C33.8889 26.1999 33.8689 26.2849 33.8689 26.3849C33.8689 26.7049 34.1689 26.8999 34.6389 26.8999C35.1139 26.8999 35.5389 26.7599 35.5389 26.4049C35.5389 26.2149 35.4189 26.1449 35.1989 26.1449ZM34.6789 24.8749C34.9339 24.8749 35.0239 24.6199 35.0239 24.1999C35.0239 23.8099 34.9039 23.4699 34.6439 23.4699C34.3889 23.4699 34.2939 23.7299 34.2939 24.1299C34.2939 24.5349 34.4189 24.8749 34.6789 24.8749Z" fill="black" fill-opacity="0.3"/>
</svg>
