<svg width="38" height="38" viewBox="0 0 38 38" fill="none" xmlns="http://www.w3.org/2000/svg">
<path d="M11 18.3C10.6134 18.3 10.3 18.6134 10.3 19C10.3 19.3866 10.6134 19.7 11 19.7V18.3ZM26.495 19.495C26.7683 19.2216 26.7683 18.7784 26.495 18.505L22.0402 14.0503C21.7668 13.7769 21.3236 13.7769 21.0503 14.0503C20.7769 14.3236 20.7769 14.7668 21.0503 15.0402L25.0101 19L21.0503 22.9598C20.7769 23.2332 20.7769 23.6764 21.0503 23.9497C21.3236 24.2231 21.7668 24.2231 22.0402 23.9497L26.495 19.495ZM11 19.7H26V18.3H11V19.7Z" 
fill="var(--primary-fill, #E4E4E4)"
stroke="var(--primary-stroke, none)"
stroke-width="var(--primary-stroke-width, 0)"
/>
</svg>
