<svg width="38" height="38" viewBox="0 0 38 38" fill="none" xmlns="http://www.w3.org/2000/svg">
    <path
        d="M20.9902 16.346C20.9469 15.9085 20.7607 15.5687 20.4317 15.3265C20.1027 15.0842 19.6562 14.9631 19.0922 14.9631C18.709 14.9631 18.3854 15.0174 18.1215 15.1258C17.8576 15.2307 17.6551 15.3771 17.5141 15.5651C17.3767 15.7531 17.308 15.9664 17.308 16.205C17.3008 16.4038 17.3424 16.5774 17.4328 16.7256C17.5268 16.8738 17.6551 17.0022 17.8178 17.1106C17.9805 17.2155 18.1685 17.3077 18.3818 17.3872C18.5951 17.4631 18.8228 17.5282 19.0651 17.5824L20.0629 17.821C20.5474 17.9295 20.992 18.0741 21.397 18.2549C21.8019 18.4356 22.1526 18.658 22.449 18.9219C22.7455 19.1858 22.9751 19.4967 23.1377 19.8547C23.304 20.2126 23.389 20.6229 23.3926 21.0857C23.389 21.7654 23.2155 22.3547 22.872 22.8536C22.5322 23.3489 22.0405 23.7339 21.397 24.0087C20.7571 24.2798 19.9852 24.4154 19.0813 24.4154C18.1847 24.4154 17.4038 24.278 16.7386 24.0033C16.077 23.7285 15.56 23.3218 15.1876 22.7831C14.8189 22.2408 14.6255 21.5701 14.6074 20.7711H16.8796C16.9049 21.1435 17.0116 21.4544 17.1996 21.7039C17.3912 21.9497 17.6461 22.1359 17.9642 22.2625C18.286 22.3854 18.6493 22.4469 19.0542 22.4469C19.4519 22.4469 19.7972 22.389 20.09 22.2733C20.3865 22.1576 20.6161 21.9967 20.7787 21.7907C20.9414 21.5846 21.0228 21.3478 21.0228 21.0803C21.0228 20.8308 20.9487 20.6211 20.8004 20.4512C20.6558 20.2813 20.4425 20.1367 20.1605 20.0174C19.8821 19.898 19.5405 19.7896 19.1356 19.692L17.9262 19.3883C16.9899 19.1605 16.2505 18.8044 15.7082 18.32C15.1659 17.8355 14.8966 17.1829 14.9002 16.3623C14.8966 15.6898 15.0756 15.1023 15.4371 14.5998C15.8022 14.0973 16.303 13.705 16.9393 13.423C17.5756 13.141 18.2986 13 19.1085 13C19.9328 13 20.6522 13.141 21.2668 13.423C21.885 13.705 22.3659 14.0973 22.7093 14.5998C23.0528 15.1023 23.2299 15.6844 23.2408 16.346H20.9902Z"
        fill="var(--primary-fill, black)"
        stroke="var(--primary-stroke, none)"
        stroke-width="var(--primary-stroke-width, 0)"
    />
    <path d="M14 19.2581H24V20.2993H14V19.2581Z"
        fill="var(--primary-fill, black)"
        stroke="var(--primary-stroke, none)"
        stroke-width="var(--primary-stroke-width, 0)"
    />
</svg>