<svg width="38" height="38" viewBox="0 0 38 38" fill="none" xmlns="http://www.w3.org/2000/svg">
<path d="M17.8588 16.3682C17.8224 16.0015 17.6664 15.7167 17.3906 15.5136C17.1148 15.3106 16.7406 15.2091 16.2679 15.2091C15.9467 15.2091 15.6755 15.2546 15.4542 15.3455C15.233 15.4333 15.0633 15.5561 14.9452 15.7136C14.83 15.8712 14.7724 16.05 14.7724 16.25C14.7664 16.4167 14.8012 16.5621 14.877 16.6864C14.9558 16.8106 15.0633 16.9182 15.1997 17.0091C15.3361 17.097 15.4936 17.1743 15.6724 17.2409C15.8512 17.3046 16.0421 17.3591 16.2452 17.4046L17.0815 17.6046C17.4876 17.6955 17.8603 17.8167 18.1997 17.9682C18.5391 18.1197 18.833 18.3061 19.0815 18.5273C19.33 18.7485 19.5224 19.0091 19.6588 19.3091C19.7982 19.6091 19.8694 19.953 19.8724 20.3409C19.8694 20.9106 19.7239 21.4046 19.4361 21.8227C19.1512 22.2379 18.7391 22.5606 18.1997 22.7909C17.6633 23.0182 17.0164 23.1318 16.2588 23.1318C15.5073 23.1318 14.8527 23.0167 14.2952 22.7864C13.7406 22.5561 13.3073 22.2152 12.9952 21.7636C12.6861 21.3091 12.5239 20.747 12.5088 20.0773H14.4133C14.4345 20.3894 14.5239 20.65 14.6815 20.8591C14.8421 21.0652 15.0558 21.2212 15.3224 21.3273C15.5921 21.4303 15.8967 21.4818 16.2361 21.4818C16.5694 21.4818 16.8588 21.4333 17.1042 21.3364C17.3527 21.2394 17.5452 21.1046 17.6815 20.9318C17.8179 20.7591 17.8861 20.5606 17.8861 20.3364C17.8861 20.1273 17.8239 19.9515 17.6997 19.8091C17.5785 19.6667 17.3997 19.5455 17.1633 19.4455C16.93 19.3455 16.6436 19.2546 16.3042 19.1727L15.2906 18.9182C14.5058 18.7273 13.8861 18.4288 13.4315 18.0227C12.977 17.6167 12.7512 17.0697 12.7542 16.3818C12.7512 15.8182 12.9012 15.3258 13.2042 14.9046C13.5103 14.4833 13.93 14.1546 14.4633 13.9182C14.9967 13.6818 15.6027 13.5636 16.2815 13.5636C16.9724 13.5636 17.5755 13.6818 18.0906 13.9182C18.6088 14.1546 19.0118 14.4833 19.2997 14.9046C19.5876 15.3258 19.7361 15.8136 19.7452 16.3682H17.8588Z" fill="black"/>
<path d="M21.0743 18.3455V17.3409L23.2879 15.5727C23.4576 15.4333 23.6046 15.3076 23.7288 15.1955C23.8531 15.0833 23.95 14.9697 24.0197 14.8546C24.0894 14.7394 24.1243 14.6121 24.1243 14.4727C24.1243 14.2546 24.0349 14.0864 23.8561 13.9682C23.6773 13.85 23.4607 13.7909 23.2061 13.7909C22.9334 13.7909 22.7137 13.8576 22.547 13.9909C22.3834 14.1212 22.3016 14.3106 22.3016 14.5591H20.9607C20.9607 13.9773 21.1728 13.5212 21.597 13.1909C22.0213 12.8576 22.5637 12.6909 23.2243 12.6909C23.6758 12.6909 24.0682 12.7697 24.4016 12.9273C24.7349 13.0818 24.9925 13.2924 25.1743 13.5591C25.3591 13.8258 25.4516 14.1243 25.4516 14.4546C25.4516 14.7212 25.3955 14.9697 25.2834 15.2C25.1743 15.4273 25.0046 15.6515 24.7743 15.8727C24.547 16.0909 24.2531 16.3197 23.8925 16.5591L23.0834 17.1591V17.2091H25.5152V18.3455H21.0743Z" fill="black"/>
</svg>
