<svg width="38" height="38" viewBox="0 0 38 38" fill="none" xmlns="http://www.w3.org/2000/svg">
<path d="M18.3 27C18.3 27.3866 18.6134 27.7 19 27.7C19.3866 27.7 19.7 27.3866 19.7 27L18.3 27ZM19.495 11.505C19.2216 11.2317 18.7784 11.2317 18.505 11.505L14.0503 15.9598C13.7769 16.2332 13.7769 16.6764 14.0503 16.9497C14.3236 17.2231 14.7668 17.2231 15.0402 16.9497L19 12.9899L22.9598 16.9497C23.2332 17.2231 23.6764 17.2231 23.9497 16.9497C24.2231 16.6764 24.2231 16.2332 23.9497 15.9598L19.495 11.505ZM19.7 27L19.7 12L18.3 12L18.3 27L19.7 27Z" 
fill="var(--primary-fill, #E4E4E4)"
stroke="var(--primary-stroke, none)"
stroke-width="var(--primary-stroke-width, 0)"
/>
</svg>
