<svg
  width="693"
  height="173"
  viewBox="0 0 693 173"
  fill="none"
  xmlns="http://www.w3.org/2000/svg"
>
  <path
    d="M101.979 139.775C98.3135 142.671 92.5368 145.344 84.6496 147.795C76.8733 150.245 69.6526 151.47 62.9873 151.47C50.4343 151.47 39.3809 148.908 29.8273 143.785C20.2738 138.55 12.8863 131.422 7.66512 122.4C2.55503 113.379 0 103.243 0 91.9943C0 78.8516 2.77722 67.4911 8.33165 57.9127C13.8861 48.2228 21.3845 40.8163 30.8271 35.6928C40.2697 30.5694 50.601 28.0078 61.8208 28.0078C68.5973 28.0078 74.9849 28.8431 80.9836 30.5138C86.9824 32.073 92.3701 34.1892 97.147 36.8623L91.8148 51.7312C88.26 49.7264 83.7609 48.0002 78.3175 46.5522C72.9853 44.993 68.1529 44.2132 63.8204 44.2132C54.489 44.2132 46.2128 46.1066 38.9921 49.8935C31.8824 53.6804 26.3835 59.0822 22.4955 66.099C18.6074 73.1158 16.6633 81.302 16.6633 90.6578C16.6633 99.3452 18.6074 107.086 22.4955 113.88C26.3835 120.674 31.8824 125.964 38.9921 129.751C46.1019 133.427 54.2112 135.265 63.3205 135.265C67.5418 135.265 71.6522 134.875 75.6514 134.095C79.6506 133.204 82.9832 131.979 85.6494 130.42V106.529H61.6542V90.9919H101.979V139.775ZM143.963 97.3404C145.741 93.5535 148.24 90.2122 151.462 87.3164C154.794 84.4207 158.294 82.193 161.959 80.6338C165.625 79.0746 168.847 78.2392 171.624 78.1278L170.958 93.665C165.959 93.4423 161.404 94.4447 157.294 96.6722C153.295 98.8996 150.128 102.018 147.796 106.028C145.574 109.926 144.463 114.103 144.463 118.558V150.133H128.966V80.9679H142.797L143.963 97.3404ZM182.688 114.882C182.688 108.088 184.299 101.907 187.521 96.338C190.853 90.6578 195.408 86.2026 201.185 82.9727C207.072 79.7428 213.682 78.1278 221.014 78.1278C228.347 78.1278 234.845 79.7428 240.511 82.9727C246.286 86.2026 250.73 90.6022 253.842 96.171C257.062 101.74 258.674 107.977 258.674 114.882C258.674 121.788 257.062 128.081 253.842 133.761C250.73 139.33 246.286 143.729 240.511 146.959C234.734 150.189 228.124 151.804 220.681 151.804C213.46 151.804 206.961 150.301 201.185 147.293C195.408 144.175 190.853 139.831 187.521 134.262C184.299 128.693 182.688 122.233 182.688 114.882ZM198.352 115.049C198.352 119.393 199.296 123.403 201.185 127.078C203.184 130.754 205.85 133.65 209.183 135.766C212.627 137.882 216.404 138.94 220.514 138.94C226.957 138.94 232.289 136.657 236.512 132.09C240.732 127.524 242.844 121.844 242.844 115.049C242.844 108.255 240.732 102.575 236.512 98.0087C232.289 93.3308 226.957 90.9919 220.514 90.9919C216.293 90.9919 212.516 92.1058 209.183 94.3332C205.85 96.4495 203.184 99.3452 201.185 103.021C199.296 106.696 198.352 110.706 198.352 115.049ZM373.186 80.9679L341.36 154.31L319.197 106.863L299.035 154.31L267.041 80.9679H282.372L300.868 122.902L313.699 92.8296L308.2 80.9679H321.697L340.36 123.904L357.856 80.9679H373.186ZM412.148 50.5618V81.135H430.977V93.4979H412.148V150.133H396.484V93.4979H383.82V81.135H396.484V50.5618H412.148ZM462.811 72.5551C469.484 64.3433 478.161 60.2373 488.846 60.2373C507.452 60.2373 516.836 70.7606 516.998 91.8069V150.133H501.946V91.7253C501.891 85.3625 500.427 80.6583 497.554 77.613C494.733 74.5673 490.313 73.0446 484.29 73.0446C479.408 73.0446 475.123 74.3499 471.436 76.9602C467.746 79.5707 464.873 82.9968 462.811 87.2389V150.133H447.76V24.8335H462.811V72.5551Z"
    fill="#363A5B"
  />
  <path
    d="M657.369 7.71451L609 86.5444L657.369 165.729L659.595 166.172L693 173L639.642 86.5444L693 0L657.369 7.71451Z"
    fill="#3096FF"
  />
  <path
    d="M581.766 86.0855L544.087 147L573.611 140.934L607 85.9999L573.525 31.0657L544 25L581.766 86.0855Z"
    fill="#3096FF"
    stroke="#3096FF"
    stroke-width="4"
  />
</svg>
