<svg
  width="15"
  height="15"
  viewBox="0 0 15 15"
  fill="none"
  xmlns="http://www.w3.org/2000/svg"
>
  <path
    d="M9.31579 6.05263C8.81327 6.05263 8.33134 5.85301 7.97601 5.49768C7.62068 5.14234 7.42105 4.66041 7.42105 4.15789V1.63158H4.89474C4.55973 1.63158 4.23844 1.76466 4.00155 2.00155C3.76466 2.23844 3.63158 2.55973 3.63158 2.89474V11.1053C3.63158 11.4403 3.76466 11.7616 4.00155 11.9984C4.23844 12.2353 4.55973 12.3684 4.89474 12.3684H10.5789C10.914 12.3684 11.2352 12.2353 11.4721 11.9984C11.709 11.7616 11.8421 11.4403 11.8421 11.1053V6.05263H9.31579ZM8.05263 4.15789C8.05263 4.4929 8.18571 4.81419 8.4226 5.05108C8.65949 5.28797 8.98078 5.42105 9.31579 5.42105H11.5832L8.05263 1.89053V4.15789ZM4.89474 1H8.05263L12.4737 5.42105V11.1053C12.4737 11.6078 12.2741 12.0897 11.9187 12.445C11.5634 12.8004 11.0815 13 10.5789 13H4.89474C4.39222 13 3.91029 12.8004 3.55496 12.445C3.19962 12.0897 3 11.6078 3 11.1053V2.89474C3 2.39222 3.19962 1.91029 3.55496 1.55496C3.91029 1.19962 4.39222 1 4.89474 1Z"
    fill="var(--primary-fill, #CCCCCC)"
    stroke="var(--primary-stroke, none)"
    stroke-width="var(--primary-stroke-width, 1.2)"
  />
</svg>
