<svg
  xmlns="http://www.w3.org/2000/svg"
  width="22"
  height="22"
  viewBox="0 0 22 22"
  fill="none"
>
  <path
    d="M19.4001 11.0001H2.6001M11.0001 2.6001V19.4001M11.8401 11.0001C11.8401 11.8912 12.1941 12.7459 12.8242 13.376C13.4543 14.0061 14.309 14.3601 15.2001 14.3601M10.1601 11.0001C10.1601 11.8912 9.8061 12.7459 9.17598 13.376C8.54585 14.0061 7.69122 14.3601 6.8001 14.3601"
    stroke="var(--primary-stroke, black)"
    stroke-width="var(--primary-stroke-width, 1.26)"
    stroke-linecap="round"
  />
  <path
    d="M10.9997 9.34935C10.9997 8.74103 11.2031 8.15018 11.5775 7.67074C11.952 7.1913 12.4759 6.85079 13.0661 6.70335C14.4126 6.36735 15.6331 7.58703 15.2963 8.93439C15.1488 9.52457 14.8083 10.0485 14.3289 10.4229C13.8495 10.7974 13.2586 11.0008 12.6503 11.0008H10.9997M10.9997 9.34935V11.0008M10.9997 9.34935C10.9997 8.74103 10.7963 8.15018 10.4218 7.67074C10.0474 7.1913 9.52347 6.85079 8.93329 6.70335C7.58677 6.36735 6.36625 7.58703 6.70309 8.93439C6.85053 9.52457 7.19104 10.0485 7.67048 10.4229C8.14992 10.7974 8.74077 11.0008 9.34909 11.0008H10.9997"
    stroke="var(--primary-stroke, black)"
    stroke-width="var(--primary-stroke-width, 1.26)"
  />
  <path
    d="M2.6001 11.0001C2.6001 7.04034 2.6001 5.06046 3.82986 3.82986C5.0613 2.6001 7.04034 2.6001 11.0001 2.6001C14.9599 2.6001 16.9397 2.6001 18.1695 3.82986C19.4001 5.0613 19.4001 7.04034 19.4001 11.0001C19.4001 14.9599 19.4001 16.9397 18.1695 18.1695C16.9406 19.4001 14.9599 19.4001 11.0001 19.4001C7.04034 19.4001 5.06046 19.4001 3.82986 18.1695C2.6001 16.9406 2.6001 14.9599 2.6001 11.0001Z"
    stroke="var(--primary-stroke, black)"
    stroke-width="var(--primary-stroke-width, 1.26)"
  />
</svg>
