<svg xmlns="http://www.w3.org/2000/svg" width="18" height="16" viewBox="0 0 18 16" fill="none">
    <path
        d="M1.95531 10.6602L1.00808 14.7482C0.975403 14.8977 0.976523 15.0525 1.01136 15.2015C1.04619 15.3504 1.11386 15.4897 1.20942 15.6092C1.30498 15.7286 1.42602 15.8252 1.56369 15.8919C1.70137 15.9586 1.8522 15.9937 2.00516 15.9946C2.07641 16.0023 2.14829 16.0023 2.21954 15.9946L6.33251 15.0473L14.2294 7.18035L9.82231 2.7832L1.95531 10.6602Z"
        fill="var(--secondary-fill, white)"
        stroke="var(--secondary-stroke, none)"
        stroke-width="var(--secondary-stroke-width, none)" />
    <path
        d="M16.7121 3.24182L13.7707 0.300415C13.5773 0.10801 13.3156 0 13.0428 0C12.77 0 12.5083 0.10801 12.3149 0.300415L10.6797 1.93563L15.0818 6.33776L16.717 4.70254C16.8127 4.60637 16.8885 4.49226 16.9401 4.36676C16.9916 4.24126 17.0179 4.10682 17.0174 3.97115C17.017 3.83547 16.9898 3.70122 16.9374 3.57607C16.885 3.45092 16.8084 3.33734 16.7121 3.24182Z"
        fill="var(--secondary-fill, white)"
        stroke="var(--secondary-stroke, none)"
        stroke-width="var(--secondary-stroke-width, none)" />
</svg>