<svg xmlns="http://www.w3.org/2000/svg" width="15" height="17" viewBox="0 0 15 17" fill="none">
  <path d="M5.23454 8.41073C5.23454 8.98793 5.00524 9.54149 4.5971 9.94964C4.18895 10.3578 3.63539 10.5871 3.05819 10.5871C2.48098 10.5871 1.92742 10.3578 1.51927 9.94964C1.11113 9.54149 0.881836 8.98793 0.881836 8.41073C0.881836 7.83352 1.11113 7.27996 1.51927 6.87181C1.92742 6.46367 2.48098 6.23437 3.05819 6.23438C3.63539 6.23437 4.18895 6.46367 4.5971 6.87181C5.00524 7.27996 5.23454 7.83352 5.23454 8.41073Z"  stroke="var(--primary-stroke, #999999)" stroke-width="var(--primary-stroke-width, 1.04465)"/>
  <path d="M9.58708 3.6228L5.23438 6.66969M9.58708 13.1987L5.23438 10.1519" stroke="var(--primary-stroke, #999999)" stroke-width="var(--primary-stroke-width, 1.04465)" stroke-linecap="round"/>
  <path d="M13.9401 14.0693C13.9401 14.6465 13.7108 15.2001 13.3027 15.6082C12.8945 16.0164 12.341 16.2457 11.7638 16.2457C11.1865 16.2457 10.633 16.0164 10.2248 15.6082C9.8167 15.2001 9.5874 14.6465 9.5874 14.0693C9.5874 13.4921 9.8167 12.9385 10.2248 12.5304C10.633 12.1222 11.1865 11.893 11.7638 11.893C12.341 11.893 12.8945 12.1222 13.3027 12.5304C13.7108 12.9385 13.9401 13.4921 13.9401 14.0693ZM13.9401 2.75228C13.9401 3.32948 13.7108 3.88305 13.3027 4.29119C12.8945 4.69934 12.341 4.92863 11.7638 4.92863C11.1865 4.92863 10.633 4.69934 10.2248 4.29119C9.8167 3.88305 9.5874 3.32948 9.5874 2.75228C9.5874 2.17507 9.8167 1.62151 10.2248 1.21337C10.633 0.805221 11.1865 0.575928 11.7638 0.575928C12.341 0.575928 12.8945 0.805221 13.3027 1.21337C13.7108 1.62151 13.9401 2.17507 13.9401 2.75228Z" stroke="var(--primary-stroke, #999999)" stroke-width="var(--primary-stroke-width, 1.04465)"/>
</svg>