<svg xmlns="http://www.w3.org/2000/svg" width="14" height="12" viewBox="0 0 14 12" fill="none">
  <path d="M1.14494 4.31811C2.05414 3.15958 3.57002 1.77265 5.42259 1.3622C6.97344 1.01878 8.87886 1.33489 11.0071 3.31019H8.80079C8.63903 3.31019 8.48389 3.37558 8.36951 3.49197C8.25512 3.60837 8.19086 3.76623 8.19086 3.93083C8.19086 4.09544 8.25512 4.2533 8.36951 4.36969C8.48389 4.48608 8.63903 4.55147 8.80079 4.55147H12.4604C12.6221 4.55147 12.7773 4.48608 12.8917 4.36969C13.0061 4.2533 13.0703 4.09544 13.0703 3.93083V0.620743C13.0703 0.456139 13.0061 0.298276 12.8917 0.181883C12.7773 0.0654905 12.6221 0.000101755 12.4604 0.000101755C12.2986 0.000101755 12.1435 0.0654905 12.0291 0.181883C11.9147 0.298276 11.8505 0.456139 11.8505 0.620743V2.41398C9.47253 0.198707 7.17675 -0.296151 5.16398 0.149056C2.9178 0.646397 1.18072 2.28406 0.191817 3.54438C0.0969037 3.67351 0.0551062 3.83516 0.0752745 3.9951C0.0954429 4.15504 0.175993 4.30071 0.29987 4.40127C0.423747 4.50183 0.581224 4.54939 0.738956 4.53387C0.896688 4.51834 1.04229 4.44096 1.14494 4.31811ZM3.92134 6.62111C3.54389 6.62111 3.1819 6.77368 2.91501 7.04526C2.64811 7.31685 2.49817 7.68519 2.49817 8.06927V10.5518C2.49817 11.3512 3.13575 12 3.92134 12H9.61404C9.99148 12 10.3535 11.8474 10.6204 11.5758C10.8873 11.3043 11.0372 10.9359 11.0372 10.5518V8.06927C11.0372 7.68519 10.8873 7.31685 10.6204 7.04526C10.3535 6.77368 9.99148 6.62111 9.61404 6.62111H3.92134Z" fill="var(--primary-fill, #FFE17D)"/>
</svg>