<svg width="24" height="24" viewBox="0 0 24 24" fill="none" xmlns="http://www.w3.org/2000/svg">
    <g id="Extension">
        <path id="extension text icon"
            d="M8.35385 20H4.84615C4.33846 20 3.904 19.8194 3.54277 19.4582C3.18154 19.0969 3.00062 18.6622 3 18.1538V14.6462C3.73846 14.6462 4.38462 14.4117 4.93846 13.9428C5.49231 13.4738 5.76923 12.8775 5.76923 12.1538C5.76923 11.4302 5.49231 10.8342 4.93846 10.3658C4.38462 9.89754 3.73846 9.66277 3 9.66154V6.15385C3 5.64615 3.18092 5.21169 3.54277 4.85046C3.90462 4.48923 4.33908 4.30831 4.84615 4.30769H8.53846C8.53846 3.66154 8.76154 3.11538 9.20769 2.66923C9.65385 2.22308 10.2 2 10.8462 2C11.4923 2 12.0385 2.22308 12.4846 2.66923C12.9308 3.11538 13.1538 3.66154 13.1538 4.30769H16.8462C17.3538 4.30769 17.7886 4.48862 18.1505 4.85046C18.5123 5.21231 18.6929 5.64677 18.6923 6.15385V9.84615C19.3385 9.84615 19.8846 10.0692 20.3308 10.5154C20.7769 10.9615 21 11.5077 21 12.1538C21 12.8 20.7769 13.3462 20.3308 13.7923C19.8846 14.2385 19.3385 14.4615 18.6923 14.4615V18.1538C18.6923 18.6615 18.5117 19.0963 18.1505 19.4582C17.7892 19.82 17.3545 20.0006 16.8462 20H13.3385C13.3385 19.2308 13.0963 18.5769 12.612 18.0385C12.1277 17.5 11.5391 17.2308 10.8462 17.2308C10.1532 17.2308 9.56492 17.5 9.08123 18.0385C8.59754 18.5769 8.35508 19.2308 8.35385 20Z"
            fill="var(--primary-fill, white)" />
    </g>
</svg>