<svg width="24" height="24" viewBox="0 0 24 24" fill="none" xmlns="http://www.w3.org/2000/svg">
    <path
        d="M18.8333 16.75C18.8333 14.8818 17.7443 13.2337 16.0833 12.24V5.75H16.5417C16.9063 5.75 17.2561 5.60513 17.5139 5.34727C17.7718 5.08941 17.9167 4.73967 17.9167 4.375C17.9167 4.01033 17.7718 3.66059 17.5139 3.40273C17.2561 3.14487 16.9063 3 16.5417 3H8.29167C7.92699 3 7.57726 3.14487 7.31939 3.40273C7.06153 3.66059 6.91667 4.01033 6.91667 4.375C6.91667 4.73967 7.06153 5.08941 7.31939 5.34727C7.57726 5.60513 7.92699 5.75 8.29167 5.75H8.75V12.24C7.089 13.2337 6 14.8818 6 16.75H11.5V20.4167C11.5 20.9208 11.9125 21.3333 12.4167 21.3333C12.9208 21.3333 13.3333 20.9208 13.3333 20.4167V16.75H18.8333Z"
        fill="var(--primary-fill, white)" />
</svg>