<svg
  width="22"
  height="22"
  viewBox="0 0 22 22"
  fill="none"
  xmlns="http://www.w3.org/2000/svg"
>
  <path
    d="M17.9091 9.08523V6.47727C17.9091 5.51705 17.1307 4.73864 16.1705 4.73864H5.73864C4.77841 4.73864 4 5.51705 4 6.47727V9.08523M17.9091 9.08523V16.9091C17.9091 17.8693 17.1307 18.6477 16.1705 18.6477H5.73864C4.77841 18.6477 4 17.8693 4 16.9091V9.08523M17.9091 9.08523H4M7.47727 3V6.47727M14.4318 3V6.47727"
    stroke-linecap="round"
    stroke="var(--primary-stroke, white)"
    stroke-width="var(--primary-stroke-width, 1)"
  />
  <path
    d="M4 9H18V17C18 18.1046 17.1046 19 16 19H6C4.89543 19 4 18.1046 4 17V9Z"
    fill="var(--primary-fill, white)"
    stroke="var(--primary-stroke, none)"
    stroke-width="var(--primary-stroke-width, 1)"
  />
</svg>
