<svg
  xmlns="http://www.w3.org/2000/svg"
  width="20"
  height="20"
  viewBox="0 0 20 20"
  fill="none"
>
  <path
    d="M5.46667 9.90039H5.07267C4.67761 9.9003 4.29137 10.0172 3.96267 10.2364L1.46667 11.9004V2.90039C1.46667 2.36996 1.67739 1.86125 2.05246 1.48618C2.42753 1.1111 2.93624 0.900391 3.46667 0.900391H10.4667C10.9971 0.900391 11.5058 1.1111 11.8809 1.48618C12.256 1.86125 12.4667 2.36996 12.4667 2.90039V4.90039M10.4667 7.90039H17.4667C17.9971 7.90039 18.5058 8.1111 18.8809 8.48618C19.256 8.86125 19.4667 9.36996 19.4667 9.90039V18.9004L16.9707 17.2364C16.642 17.0172 16.2557 16.9003 15.8607 16.9004H10.4667C9.93624 16.9004 9.42753 16.6897 9.05246 16.3146C8.67739 15.9395 8.46667 15.4308 8.46667 14.9004V9.90039C8.46667 9.36996 8.67739 8.86125 9.05246 8.48618C9.42753 8.1111 9.93624 7.90039 10.4667 7.90039Z"
    stroke-linecap="round"
    stroke-linejoin="round"
    stroke="var(--primary-stroke, #565656)"
    stroke-width="var(--primary-stroke-width, 1)"
  />
</svg>
