<svg
  xmlns="http://www.w3.org/2000/svg"
  width="19"
  height="19"
  viewBox="0 0 19 19"
  fill="none"
>
  <path
    d="M13.7857 1.53714C14.7244 0.858574 16.004 0.783179 16.9374 1.54032C17.8995 2.31977 18.2733 3.62168 17.8103 4.69315M5.29037 1.58705C4.34526 0.862822 3.02636 0.765126 2.07064 1.54032C1.10855 2.31977 0.734751 3.62168 1.19775 4.69421M10.566 2.67126H8.44213C6.7523 2.67126 5.13169 3.34254 3.93681 4.53743C2.74192 5.73231 2.07064 7.35293 2.07064 9.04275V11.0976C2.07064 12.7874 2.74192 14.408 3.93681 15.6029C5.13169 16.7978 6.7523 17.469 8.44213 17.469H10.566C12.2558 17.469 13.8764 16.7978 15.0713 15.6029C16.2662 14.408 16.9374 12.7874 16.9374 11.0976V9.04275C16.9374 7.35293 16.2662 5.73231 15.0713 4.53743C13.8764 3.34254 12.2558 2.67126 10.566 2.67126Z"
    stroke="var(--primary-stroke, #CCCCCC)"
    stroke-width="var(--primary-stroke-width, 1)"
    stroke-linecap="round"
    stroke-linejoin="round"
  />
  <path
    d="M9.50342 5.7876V10.0353H13.2201M3.66289 15.8758L1.53906 17.9996M15.344 15.8758L17.4678 17.9996"
    stroke="var(--primary-stroke, #CCCCCC)"
    stroke-width="var(--primary-stroke-width, 1)"
    stroke-linecap="round"
    stroke-linejoin="round"
  />
</svg>
