<svg
  xmlns="http://www.w3.org/2000/svg"
  width="23"
  height="22"
  viewBox="0 0 23 22"
  fill="none"
>
  <path
    fill-rule="evenodd"
    clip-rule="evenodd"
    d="M12.6358 3.28702C11.9729 2.90433 11.1563 2.90433 10.4934 3.28702L5.57118 6.12888C5.28899 6.2918 5.05293 6.51355 4.87487 6.77356C4.83469 6.80872 4.7995 6.85096 4.7713 6.89975C4.74336 6.94808 4.72441 6.99915 4.71393 7.051C4.57538 7.33726 4.5 7.65538 4.5 7.98423V13.6679C4.5 14.4333 4.90833 15.1406 5.57118 15.5233L10.4934 18.3651C11.1563 18.7478 11.9729 18.7478 12.6358 18.3651L17.558 15.5233C18.2209 15.1406 18.6292 14.4333 18.6292 13.6679V7.98423C18.6292 7.6495 18.5511 7.32589 18.4078 7.03569C18.3968 6.9912 18.3794 6.9475 18.3553 6.90582C18.3313 6.86421 18.3022 6.82735 18.2692 6.79559C18.0895 6.52607 17.8482 6.29638 17.558 6.12888L12.6358 3.28702ZM17.1267 7.03784C17.1044 7.02279 17.0815 7.00847 17.058 6.99491L12.1358 4.15305C11.7823 3.94898 11.3469 3.94898 10.9934 4.15305L6.07118 6.99491C6.04879 7.00784 6.02694 7.02146 6.00565 7.03574L11.5647 10.2491L17.1267 7.03784ZM5.50308 7.90028C5.50104 7.92808 5.5 7.95608 5.5 7.98423V13.6679C5.5 14.0761 5.71773 14.4532 6.07118 14.6573L10.9934 17.4991C11.0169 17.5127 11.0408 17.5254 11.065 17.5371V11.1153L5.50308 7.90028ZM12.065 17.5367C12.0889 17.5251 12.1125 17.5125 12.1358 17.4991L17.058 14.6573C17.4115 14.4532 17.6292 14.0761 17.6292 13.6679V7.98423C17.6292 7.95734 17.6283 7.93059 17.6264 7.90402L12.065 11.1149V17.5367Z"
    fill="var(--primary-fill, #747474)"
    stroke="var(--primary-stroke, none)"
    stroke-width="var(--primary-stroke-width, 1)"
  />
</svg>
