<svg
  width="38"
  height="38"
  viewBox="0 0 38 38"
  fill="none"
  xmlns="http://www.w3.org/2000/svg"
>
  <path
    d="M21.768 18.392C22.7493 18.9573 23.24 19.8107 23.24 20.952C23.24 21.9013 22.904 22.68 22.232 23.288C21.56 23.896 20.7333 24.2 19.752 24.2H15V13H19.416C20.376 13 21.1813 13.2987 21.832 13.896C22.4933 14.4827 22.824 15.2347 22.824 16.152C22.824 17.08 22.472 17.8267 21.768 18.392ZM19.416 15.064H17.208V17.528H19.416C19.7573 17.528 20.04 17.4107 20.264 17.176C20.4987 16.9413 20.616 16.648 20.616 16.296C20.616 15.944 20.504 15.6507 20.28 15.416C20.056 15.1813 19.768 15.064 19.416 15.064ZM19.752 22.136C20.1253 22.136 20.4347 22.0133 20.68 21.768C20.9253 21.512 21.048 21.192 21.048 20.808C21.048 20.4347 20.9253 20.1253 20.68 19.88C20.4347 19.624 20.1253 19.496 19.752 19.496H17.208V22.136H19.752Z"
    fill="currentColor"
  />
</svg>
