<svg
  width="38"
  height="38"
  viewBox="0 0 38 38"
  fill="none"
  stroke="currentColor"
  xmlns="http://www.w3.org/2000/svg"
>
  <path
    d="M14.875 14.6465H26.5M14.875 19.1673H26.5M14.875 23.6882H26.5"
    stroke-linecap="round"
    stroke-linejoin="round"
    stroke-width="1.29167"
  />
  <path
    d="M11.6458 15.2917C12.0025 15.2917 12.2917 15.0025 12.2917 14.6458C12.2917 14.2891 12.0025 14 11.6458 14C11.2891 14 11 14.2891 11 14.6458C11 15.0025 11.2891 15.2917 11.6458 15.2917Z"
    stroke-linecap="round"
    stroke-linejoin="round"
    stroke-width="1.29167"
  />
  <path
    d="M11.6458 19.8132C12.0025 19.8132 12.2917 19.524 12.2917 19.1673C12.2917 18.8106 12.0025 18.5215 11.6458 18.5215C11.2891 18.5215 11 18.8106 11 19.1673C11 19.524 11.2891 19.8132 11.6458 19.8132Z"
    stroke-linecap="round"
    stroke-linejoin="round"
    stroke-width="1.29167"
  />
  <path
    d="M11.6458 24.3337C12.0025 24.3337 12.2917 24.0445 12.2917 23.6878C12.2917 23.3311 12.0025 23.042 11.6458 23.042C11.2891 23.042 11 23.3311 11 23.6878C11 24.0445 11.2891 24.3337 11.6458 24.3337Z"
    stroke-linecap="round"
    stroke-linejoin="round"
    stroke-width="1.29167"
  />
</svg>
