<svg
  width="38"
  height="38"
  viewBox="0 0 38 38"
  fill="none"
  xmlns="http://www.w3.org/2000/svg"
>
  <rect
    x="6.6"
    y="11.6002"
    width="23.8"
    height="14.8"
    rx="4.83478"
    fill="var(--secondary-fill, none)"
    stroke="var(--secondary-stroke, black)"
    stroke-width="var(--secondary-stroke-width, 1.2)"
  />
  <path
    d="M11 20.4772V17H12.3311C12.5824 17 12.7912 17.0396 12.9576 17.1189C13.1252 17.197 13.2502 17.3039 13.3329 17.4397C13.4166 17.5756 13.4585 17.7295 13.4585 17.9016C13.4585 18.0431 13.4313 18.1642 13.377 18.2649C13.3227 18.3645 13.2497 18.4454 13.158 18.5077C13.0663 18.57 12.9639 18.6147 12.8507 18.6418V18.6758C12.974 18.6826 13.0923 18.7205 13.2055 18.7895C13.3198 18.8575 13.4132 18.9537 13.4857 19.0782C13.5581 19.2027 13.5943 19.3532 13.5943 19.5298C13.5943 19.7098 13.5508 19.8716 13.4636 20.0154C13.3764 20.158 13.2451 20.2706 13.0697 20.3533C12.8942 20.4359 12.6735 20.4772 12.4075 20.4772H11ZM11.6299 19.9509H12.3074C12.536 19.9509 12.7007 19.9073 12.8014 19.8201C12.9033 19.7319 12.9542 19.6187 12.9542 19.4806C12.9542 19.3776 12.9288 19.2848 12.8778 19.2021C12.8269 19.1184 12.7545 19.0527 12.6605 19.0052C12.5666 18.9565 12.4545 18.9322 12.3243 18.9322H11.6299V19.9509ZM11.6299 18.4788H12.253C12.3617 18.4788 12.4596 18.459 12.5468 18.4194C12.6339 18.3787 12.7024 18.3215 12.7522 18.2479C12.8031 18.1732 12.8286 18.0849 12.8286 17.9831C12.8286 17.8484 12.7811 17.7374 12.686 17.6503C12.592 17.5631 12.4522 17.5195 12.2666 17.5195H11.6299V18.4788Z"
    fill="var(--primary-fill, black)"
    stroke="var(--primary-stroke, none)"
    stroke-width="var(--primary-stroke-width, 0)"
  />
  <path
    d="M15.7774 19.3804V17.8693H16.392V20.4772H15.796V20.0137H15.7689C15.71 20.1597 15.6132 20.2791 15.4785 20.372C15.345 20.4648 15.1803 20.5112 14.9845 20.5112C14.8135 20.5112 14.6624 20.4733 14.5311 20.3974C14.401 20.3204 14.2991 20.209 14.2255 20.0629C14.1519 19.9158 14.1152 19.7381 14.1152 19.5298V17.8693H14.7298V19.4347C14.7298 19.6 14.7751 19.7313 14.8656 19.8286C14.9562 19.926 15.075 19.9747 15.2222 19.9747C15.3127 19.9747 15.4004 19.9526 15.4853 19.9084C15.5702 19.8643 15.6398 19.7986 15.6942 19.7115C15.7496 19.6232 15.7774 19.5128 15.7774 19.3804Z"
    fill="var(--primary-fill, black)"
    stroke="var(--primary-stroke, none)"
    stroke-width="var(--primary-stroke-width, 0)"
  />
  <path
    d="M18.3263 17.8693V18.3447H16.8271V17.8693H18.3263ZM17.1972 17.2445H17.8118V19.6928C17.8118 19.7754 17.8243 19.8388 17.8492 19.883C17.8752 19.926 17.9092 19.9554 17.951 19.9713C17.9929 19.9871 18.0393 19.995 18.0903 19.995C18.1288 19.995 18.1638 19.9922 18.1955 19.9865C18.2284 19.9809 18.2533 19.9758 18.2702 19.9713L18.3738 20.4518C18.341 20.4631 18.294 20.4755 18.2329 20.4891C18.1729 20.5027 18.0993 20.5106 18.0122 20.5129C17.8582 20.5174 17.7196 20.4942 17.5962 20.4433C17.4728 20.3912 17.3749 20.3108 17.3025 20.2022C17.2311 20.0935 17.1961 19.9577 17.1972 19.7947V17.2445Z"
    fill="var(--primary-fill, black)"
    stroke="var(--primary-stroke, none)"
    stroke-width="var(--primary-stroke-width, 0)"
  />
  <path
    d="M20.1426 17.8693V18.3447H18.6433V17.8693H20.1426ZM19.0135 17.2445H19.6281V19.6928C19.6281 19.7754 19.6406 19.8388 19.6655 19.883C19.6915 19.926 19.7254 19.9554 19.7673 19.9713C19.8092 19.9871 19.8556 19.995 19.9066 19.995C19.945 19.995 19.9801 19.9922 20.0118 19.9865C20.0446 19.9809 20.0695 19.9758 20.0865 19.9713L20.1901 20.4518C20.1573 20.4631 20.1103 20.4755 20.0492 20.4891C19.9892 20.5027 19.9156 20.5106 19.8285 20.5129C19.6745 20.5174 19.5359 20.4942 19.4125 20.4433C19.2891 20.3912 19.1912 20.3108 19.1187 20.2022C19.0474 20.0935 19.0123 19.9577 19.0135 19.7947V17.2445Z"
    fill="var(--primary-fill, black)"
    stroke="var(--primary-stroke, none)"
    stroke-width="var(--primary-stroke-width, 0)"
  />
  <path
    d="M21.7661 20.5282C21.5115 20.5282 21.2907 20.4721 21.104 20.3601C20.9172 20.248 20.7723 20.0912 20.6693 19.8898C20.5674 19.6883 20.5165 19.4528 20.5165 19.1834C20.5165 18.9141 20.5674 18.6781 20.6693 18.4754C20.7723 18.2728 20.9172 18.1155 21.104 18.0034C21.2907 17.8914 21.5115 17.8353 21.7661 17.8353C22.0208 17.8353 22.2415 17.8914 22.4283 18.0034C22.6151 18.1155 22.7594 18.2728 22.8613 18.4754C22.9643 18.6781 23.0158 18.9141 23.0158 19.1834C23.0158 19.4528 22.9643 19.6883 22.8613 19.8898C22.7594 20.0912 22.6151 20.248 22.4283 20.3601C22.2415 20.4721 22.0208 20.5282 21.7661 20.5282ZM21.7695 20.0358C21.9076 20.0358 22.0231 19.9979 22.1159 19.922C22.2087 19.845 22.2778 19.742 22.323 19.613C22.3694 19.484 22.3926 19.3402 22.3926 19.1818C22.3926 19.0222 22.3694 18.8778 22.323 18.7488C22.2778 18.6186 22.2087 18.5151 22.1159 18.4381C22.0231 18.3611 21.9076 18.3226 21.7695 18.3226C21.628 18.3226 21.5103 18.3611 21.4164 18.4381C21.3236 18.5151 21.2539 18.6186 21.2075 18.7488C21.1623 18.8778 21.1396 19.0222 21.1396 19.1818C21.1396 19.3402 21.1623 19.484 21.2075 19.613C21.2539 19.742 21.3236 19.845 21.4164 19.922C21.5103 19.9979 21.628 20.0358 21.7695 20.0358Z"
    fill="var(--primary-fill, black)"
    stroke="var(--primary-stroke, none)"
    stroke-width="var(--primary-stroke-width, 0)"
  />
  <path
    d="M24.1521 18.9491V20.4772H23.5374V17.8693H24.1249V18.3124H24.1555C24.2154 18.1664 24.3111 18.0504 24.4424 17.9644C24.5748 17.8784 24.7384 17.8353 24.9331 17.8353C25.113 17.8353 25.2698 17.8738 25.4034 17.9508C25.5381 18.0278 25.6422 18.1393 25.7158 18.2853C25.7905 18.4313 25.8273 18.6084 25.8261 18.8167V20.4772H25.2115V18.9118C25.2115 18.7375 25.1662 18.6011 25.0757 18.5026C24.9863 18.4041 24.8623 18.3549 24.7039 18.3549C24.5963 18.3549 24.5007 18.3787 24.4169 18.4262C24.3343 18.4726 24.2692 18.54 24.2217 18.6282C24.1753 18.7165 24.1521 18.8235 24.1521 18.9491Z"
    fill="var(--primary-fill, black)"
    stroke="var(--primary-stroke, none)"
    stroke-width="var(--primary-stroke-width, 0)"
  />
</svg>
