<svg
  width="38"
  height="38"
  viewBox="0 0 38 38"
  fill="none"
  xmlns="http://www.w3.org/2000/svg"
>
  <path
    d="M11.8091 23V13.6909H13.7773V17.5318H17.7727V13.6909H19.7364V23H17.7727V19.1545H13.7773V23H11.8091ZM21.4325 23V21.5818L24.7462 18.5136C25.028 18.2409 25.2644 17.9955 25.4553 17.7773C25.6492 17.5591 25.7962 17.3455 25.8962 17.1364C25.9962 16.9242 26.0462 16.6955 26.0462 16.45C26.0462 16.1773 25.9841 15.9424 25.8598 15.7455C25.7356 15.5455 25.5659 15.3924 25.3507 15.2864C25.1356 15.1773 24.8916 15.1227 24.6189 15.1227C24.3341 15.1227 24.0856 15.1803 23.8735 15.2955C23.6613 15.4106 23.4977 15.5758 23.3825 15.7909C23.2674 16.0061 23.2098 16.2621 23.2098 16.5591H21.3416C21.3416 15.95 21.4795 15.4212 21.7553 14.9727C22.031 14.5242 22.4174 14.1773 22.9144 13.9318C23.4113 13.6864 23.9841 13.5636 24.6325 13.5636C25.2992 13.5636 25.8795 13.6818 26.3735 13.9182C26.8704 14.1515 27.2568 14.4758 27.5325 14.8909C27.8083 15.3061 27.9462 15.7818 27.9462 16.3182C27.9462 16.6697 27.8765 17.0167 27.7371 17.3591C27.6007 17.7015 27.3568 18.0818 27.0053 18.5C26.6538 18.9152 26.1583 19.4136 25.5189 19.9955L24.1598 21.3273V21.3909H28.0689V23H21.4325Z"
    fill="var(--primary-fill, black)"
    stroke="var(--primary-stroke, none)"
    stroke-width="var(--primary-stroke-width, 0)"
  />
</svg>
