<svg
  width="38"
  height="38"
  viewBox="0 0 38 38"
  fill="none"
  xmlns="http://www.w3.org/2000/svg"
>
  <path
    d="M18.3838 13.6294L18.7716 14.292C17.2632 15.0893 16.2451 15.8004 15.7171 16.4253C15.3724 16.8455 15.2 17.2442 15.2 17.6213C15.2 17.9984 15.4747 18.4455 16.0242 18.9627C16.5845 19.4798 16.9616 19.927 17.1555 20.3041C17.2956 20.5734 17.3656 20.8859 17.3656 21.2414C17.3656 21.9633 17.107 22.5828 16.5898 23.1C16.0727 23.6172 15.4316 23.8757 14.6666 23.8757C13.9124 23.8757 13.2768 23.601 12.7596 23.0515C12.2532 22.4913 12 21.7801 12 20.9182C12 19.5822 12.4094 18.3809 13.2283 17.3142C14.3165 15.9135 16.035 14.6853 18.3838 13.6294ZM25.511 13.6294L25.915 14.3405C24.3743 15.1486 23.3615 15.8435 22.8766 16.4253C22.5426 16.8347 22.3756 17.2496 22.3756 17.6698C22.3756 18.0576 22.6719 18.5209 23.2645 19.0596C24.0941 19.8031 24.509 20.5357 24.509 21.2576C24.509 21.9795 24.245 22.6098 23.717 23.1485C23.1999 23.6764 22.5857 23.9404 21.8746 23.9404C21.142 23.9404 20.5009 23.6495 19.9514 23.0677C19.4019 22.4751 19.1272 21.7532 19.1272 20.902C19.1272 19.566 19.5797 18.327 20.4848 17.1849C21.6268 15.7196 23.3022 14.5344 25.511 13.6294Z"
    fill="var(--primary-fill, black)"
    stroke="var(--primary-stroke, red)"
    stroke-width="var(--primary-stroke-width, 0)"
  />
</svg>
