<svg
  width="38"
  height="38"
  viewBox="0 0 38 38"
  fill="none"
  xmlns="http://www.w3.org/2000/svg"
>
  <path
    d="M17.8588 16.3683C17.8224 16.0016 17.6664 15.7168 17.3906 15.5137C17.1148 15.3107 16.7406 15.2092 16.2679 15.2092C15.9467 15.2092 15.6755 15.2546 15.4542 15.3455C15.233 15.4334 15.0633 15.5561 14.9452 15.7137C14.83 15.8713 14.7724 16.0501 14.7724 16.2501C14.7664 16.4168 14.8012 16.5622 14.877 16.6864C14.9558 16.8107 15.0633 16.9183 15.1997 17.0092C15.3361 17.0971 15.4936 17.1743 15.6724 17.241C15.8512 17.3046 16.0421 17.3592 16.2452 17.4046L17.0815 17.6046C17.4876 17.6955 17.8603 17.8168 18.1997 17.9683C18.5391 18.1198 18.833 18.3061 19.0815 18.5274C19.33 18.7486 19.5224 19.0092 19.6588 19.3092C19.7982 19.6092 19.8694 19.9531 19.8724 20.341C19.8694 20.9107 19.7239 21.4046 19.4361 21.8228C19.1512 22.238 18.7391 22.5607 18.1997 22.791C17.6633 23.0183 17.0164 23.1319 16.2588 23.1319C15.5073 23.1319 14.8527 23.0168 14.2952 22.7864C13.7406 22.5561 13.3073 22.2152 12.9952 21.7637C12.6861 21.3092 12.5239 20.7471 12.5088 20.0774H14.4133C14.4345 20.3895 14.5239 20.6501 14.6815 20.8592C14.8421 21.0652 15.0558 21.2213 15.3224 21.3274C15.5921 21.4304 15.8967 21.4819 16.2361 21.4819C16.5694 21.4819 16.8588 21.4334 17.1042 21.3364C17.3527 21.2395 17.5452 21.1046 17.6815 20.9319C17.8179 20.7592 17.8861 20.5607 17.8861 20.3364C17.8861 20.1274 17.8239 19.9516 17.6997 19.8092C17.5785 19.6668 17.3997 19.5455 17.1633 19.4455C16.93 19.3455 16.6436 19.2546 16.3042 19.1728L15.2906 18.9183C14.5058 18.7274 13.8861 18.4289 13.4315 18.0228C12.977 17.6168 12.7512 17.0698 12.7542 16.3819C12.7512 15.8183 12.9012 15.3258 13.2042 14.9046C13.5103 14.4834 13.93 14.1546 14.4633 13.9183C14.9967 13.6819 15.6027 13.5637 16.2815 13.5637C16.9724 13.5637 17.5755 13.6819 18.0906 13.9183C18.6088 14.1546 19.0118 14.4834 19.2997 14.9046C19.5876 15.3258 19.7361 15.8137 19.7452 16.3683H17.8588Z"
    fill="var(--primary-fill, black)"
    stroke="var(--primary-stroke, none)"
    stroke-width="var(--primary-stroke-width, 0)"
  />
  <path
    d="M21.0743 24.6001V23.5955L23.2879 21.8274C23.4576 21.688 23.6046 21.5622 23.7288 21.4501C23.8531 21.338 23.95 21.2243 24.0197 21.1092C24.0894 20.994 24.1243 20.8668 24.1243 20.7274C24.1243 20.5092 24.0349 20.341 23.8561 20.2228C23.6773 20.1046 23.4607 20.0455 23.2061 20.0455C22.9334 20.0455 22.7137 20.1122 22.547 20.2455C22.3834 20.3758 22.3016 20.5652 22.3016 20.8137H20.9607C20.9607 20.2319 21.1728 19.7758 21.597 19.4455C22.0213 19.1122 22.5637 18.9455 23.2243 18.9455C23.6758 18.9455 24.0682 19.0243 24.4016 19.1819C24.7349 19.3364 24.9925 19.5471 25.1743 19.8137C25.3591 20.0804 25.4516 20.3789 25.4516 20.7092C25.4516 20.9758 25.3955 21.2243 25.2834 21.4546C25.1743 21.6819 25.0046 21.9061 24.7743 22.1274C24.547 22.3455 24.2531 22.5743 23.8925 22.8137L23.0834 23.4137V23.4637H25.5152V24.6001H21.0743Z"
    fill="var(--primary-fill, black)"
    stroke="var(--primary-stroke, none)"
    stroke-width="var(--primary-stroke-width, 0)"
  />
</svg>
