<svg xmlns="http://www.w3.org/2000/svg" width="18" height="16" viewBox="0 0 18 16" fill="none">
  <path d="M15.4615 3.15901L15.4615 2.04476L14.6736 2.83266L7.12576 10.3805L6.80508 10.7012L7.12009 11.0275L10.7021 14.7375L10.8382 14.8784L11.0342 14.8784L15 14.8784L16.0603 14.8784L15.3378 14.1024L12.1929 10.7246L15.3201 7.71317L15.4615 7.57701L15.4615 7.38071L15.4615 3.15901Z" 
  fill="var(--primary-fill, none)"      
  stroke="var(--primary-stroke, #5D5D5D)" 
        stroke-width="var(--primary-stroke-width, 0.923076)"/>
  <path d="M2.53846 12.8407L2.53846 13.955L3.32636 13.1671L10.8742 5.61922L11.1949 5.29854L10.8799 4.97228L7.29787 1.2623L7.16177 1.12135L6.96584 1.12135L3 1.12135L1.93968 1.12135L2.6622 1.89739L5.80707 5.2752L2.67986 8.28659L2.53846 8.42275L2.53846 8.61905L2.53846 12.8407Z" 
        stroke="var(--primary-stroke, #5D5D5D)" 
        stroke-width="var(--primary-stroke-width, 0.923076)"
        fill="var(--primary-fill, none)"      />
</svg>