<svg width="22" height="23" viewBox="0 0 22 23" fill="none" xmlns="http://www.w3.org/2000/svg">
    <g id="Frame">
        <path id="Vector"
            d="M18.5625 13.5875V17.4834C18.5625 18.4862 17.8411 19.3497 16.8465 19.4817C14.9334 19.7356 12.9818 19.8667 11 19.8667C9.01816 19.8667 7.06657 19.7356 5.15349 19.4817C4.15891 19.3497 3.43749 18.4862 3.43749 17.4834V13.5875M18.5625 13.5875C18.7802 13.3984 18.9543 13.1644 19.073 12.9015C19.1917 12.6387 19.252 12.3533 19.25 12.0649V8.5972C19.25 7.60628 18.546 6.75012 17.5661 6.60345C16.5278 6.448 15.4842 6.32967 14.4375 6.2487M18.5625 13.5875C18.3847 13.7388 18.1775 13.8579 17.9456 13.9359C15.7054 14.6791 13.3602 15.0568 11 15.0542C8.57266 15.0542 6.23791 14.6609 4.05441 13.9359C3.82823 13.8606 3.61874 13.7423 3.43749 13.5875M3.43749 13.5875C3.21982 13.3984 3.04567 13.1644 2.927 12.9015C2.80832 12.6387 2.74794 12.3533 2.74999 12.0649V8.5972C2.74999 7.60628 3.45399 6.75012 4.43391 6.60345C5.47221 6.448 6.51574 6.32967 7.56249 6.2487M14.4375 6.2487V5.4292C14.4375 4.88219 14.2202 4.35759 13.8334 3.97079C13.4466 3.584 12.922 3.3667 12.375 3.3667H9.62499C9.07798 3.3667 8.55338 3.584 8.16658 3.97079C7.77979 4.35759 7.56249 4.88219 7.56249 5.4292V6.2487M14.4375 6.2487C12.1492 6.07185 9.85074 6.07185 7.56249 6.2487M11 12.3042H11.0073V12.3115H11V12.3042Z"
            stroke="var(--primary-stroke, black)"
            stroke-width="var(--primary-stroke-width, 1.5)"
            stroke-linecap="round" stroke-linejoin="round" />
    </g>
</svg>