<svg width="24" height="24" viewBox="0 0 24 24" fill="none" xmlns="http://www.w3.org/2000/svg">
    <g id="basil:video-outline">
        <path id="Vector" fill-rule="evenodd" clip-rule="evenodd"
            d="M14.062 5.62001C11.6966 5.37295 9.31292 5.35454 6.944 5.56501L5.362 5.70601C4.72719 5.76294 4.13008 6.03213 3.66706 6.47011C3.20403 6.9081 2.9021 7.48934 2.81 8.12001C2.43353 10.693 2.43353 13.307 2.81 15.88C2.90231 16.5108 3.20444 17.092 3.66764 17.53C4.13083 17.968 4.72807 18.2371 5.363 18.294L6.945 18.434C9.31389 18.6448 11.6976 18.6267 14.063 18.38L14.671 18.316C15.2745 18.2527 15.842 17.9981 16.2905 17.5893C16.739 17.1805 17.0451 16.6391 17.164 16.044L20.211 17.662C20.3204 17.7201 20.4425 17.7502 20.5663 17.7497C20.6902 17.7491 20.812 17.7178 20.9209 17.6587C21.0297 17.5996 21.1222 17.5144 21.1901 17.4108C21.258 17.3072 21.2992 17.1884 21.31 17.065L21.335 16.781C21.6126 13.5994 21.6126 10.3996 21.335 7.21801L21.31 6.93401C21.2991 6.81055 21.2578 6.69172 21.1898 6.58812C21.1218 6.48453 21.0291 6.39941 20.9202 6.34037C20.8112 6.28133 20.6893 6.25021 20.5654 6.2498C20.4415 6.24939 20.3194 6.27969 20.21 6.33801L17.164 7.95601C17.0451 7.36093 16.739 6.81947 16.2905 6.41072C15.842 6.00196 15.2745 5.74732 14.671 5.68401L14.062 5.62001ZM7.078 7.05901C9.35004 6.85605 11.6364 6.8738 13.905 7.11201L14.513 7.17601C14.8101 7.20746 15.0882 7.33685 15.3037 7.54378C15.5191 7.75072 15.6596 8.02345 15.703 8.31901C16.061 10.76 16.061 13.239 15.703 15.681C15.6596 15.9766 15.5191 16.2493 15.3037 16.4562C15.0882 16.6632 14.8101 16.7926 14.513 16.824L13.905 16.888C11.6364 17.1262 9.35004 17.144 7.078 16.941L5.496 16.799C5.19702 16.7723 4.91572 16.6457 4.69748 16.4397C4.47923 16.2336 4.33675 15.96 4.293 15.663C3.93757 13.2339 3.93757 10.7661 4.293 8.33701C4.33638 8.03978 4.47872 7.76587 4.69701 7.55955C4.91531 7.35323 5.19681 7.22656 5.496 7.20001L7.078 7.05901ZM17.36 9.55001C17.509 11.18 17.509 12.82 17.36 14.45L19.907 15.803C20.0892 13.2709 20.0892 10.7291 19.907 8.19701L17.36 9.55001Z"
            fill="var(--primary-fill, black)"
        />
    </g>
</svg>