<svg width="13" height="16" viewBox="0 0 13 16" fill="none" xmlns="http://www.w3.org/2000/svg">
    <path
        d="M8.42105 6.73684C7.75103 6.73684 7.10845 6.47068 6.63468 5.9969C6.1609 5.52313 5.89474 4.88055 5.89474 4.21053V0.842105H2.52632C2.07964 0.842105 1.65125 1.01955 1.3354 1.3354C1.01955 1.65125 0.842105 2.07964 0.842105 2.52632V13.4737C0.842105 13.9204 1.01955 14.3487 1.3354 14.6646C1.65125 14.9805 2.07964 15.1579 2.52632 15.1579H10.1053C10.5519 15.1579 10.9803 14.9805 11.2962 14.6646C11.612 14.3487 11.7895 13.9204 11.7895 13.4737V6.73684H8.42105ZM6.73684 4.21053C6.73684 4.65721 6.91429 5.08559 7.23014 5.40144C7.54599 5.71729 7.97437 5.89474 8.42105 5.89474H11.4442L6.73684 1.18737V4.21053ZM2.52632 0H6.73684L12.6316 5.89474V13.4737C12.6316 14.1437 12.3654 14.7863 11.8916 15.2601C11.4179 15.7338 10.7753 16 10.1053 16H2.52632C1.8563 16 1.21372 15.7338 0.739941 15.2601C0.266165 14.7863 0 14.1437 0 13.4737V2.52632C0 1.8563 0.266165 1.21372 0.739941 0.739941C1.21372 0.266165 1.8563 0 2.52632 0Z"
        fill="var(--primary-fill, #CCCCCC)"
        stroke="var(--primary-stroke, none)"
        stroke-width="var(--primary-stroke-width, 1.2)" />
</svg>
    