<svg xmlns="http://www.w3.org/2000/svg" width="22" height="22" viewBox="0 0 22 22" fill="none">
    <path
        d="M2.6001 11.0001C2.6001 7.04034 2.6001 5.06046 3.82986 3.82986C5.0613 2.6001 7.04034 2.6001 11.0001 2.6001C14.9599 2.6001 16.9397 2.6001 18.1695 3.82986C19.4001 5.0613 19.4001 7.04034 19.4001 11.0001C19.4001 14.9599 19.4001 16.9397 18.1695 18.1695C16.9406 19.4001 14.9599 19.4001 11.0001 19.4001C7.04034 19.4001 5.06046 19.4001 3.82986 18.1695C2.6001 16.9406 2.6001 14.9599 2.6001 11.0001Z"
        fill="var(--primary-fill, none)"
        stroke="var(--primary-stroke, black)"
        stroke-width="var(--primary-stroke-width, 1.26)" />
    <path
        d="M6.7998 12.6798L8.72592 10.7537C8.88345 10.5962 9.09707 10.5078 9.3198 10.5078C9.54254 10.5078 9.75616 10.5962 9.91368 10.7537L11.2459 12.0859C11.4034 12.2434 11.6171 12.3319 11.8398 12.3319C12.0625 12.3319 12.2762 12.2434 12.4337 12.0859L15.1998 9.31982M15.1998 9.31982V11.4198M15.1998 9.31982H13.0998"
        fill="var(--primary-fill, none)"
        stroke="var(--primary-stroke, black)"
        stroke-width="var(--primary-stroke-width, 1.26)" stroke-linecap="round"
        stroke-linejoin="round" />
</svg>