<svg width="20" height="20" viewBox="0 0 20 20" fill="none" xmlns="http://www.w3.org/2000/svg">
    <g id="fluent:arrow-growth-20-regular">
        <path id="Vector"
            d="M14.5 2C14.3674 2 14.2402 2.05268 14.1464 2.14645C14.0527 2.24021 14 2.36739 14 2.5C14 2.63261 14.0527 2.75979 14.1464 2.85355C14.2402 2.94732 14.3674 3 14.5 3H16.293L11.5 7.793L8.85399 5.146C8.80754 5.09944 8.75237 5.06249 8.69162 5.03729C8.63088 5.01208 8.56576 4.99911 8.49999 4.99911C8.43422 4.99911 8.3691 5.01208 8.30836 5.03729C8.24761 5.06249 8.19244 5.09944 8.14599 5.146L3.14599 10.146C3.0521 10.2399 2.99936 10.3672 2.99936 10.5C2.99936 10.6328 3.0521 10.7601 3.14599 10.854C3.23988 10.9479 3.36721 11.0006 3.49999 11.0006C3.63277 11.0006 3.7601 10.9479 3.85399 10.854L8.49999 6.207L11.146 8.854C11.1924 8.90056 11.2476 8.93751 11.3084 8.96271C11.3691 8.98792 11.4342 9.00089 11.5 9.00089C11.5658 9.00089 11.6309 8.98792 11.6916 8.96271C11.7524 8.93751 11.8075 8.90056 11.854 8.854L17 3.707V5.5C17 5.63261 17.0527 5.75979 17.1464 5.85355C17.2402 5.94732 17.3674 6 17.5 6C17.6326 6 17.7598 5.94732 17.8535 5.85355C17.9473 5.75979 18 5.63261 18 5.5V2.5C18 2.36739 17.9473 2.24021 17.8535 2.14645C17.7598 2.05268 17.6326 2 17.5 2H14.5ZM15.5 9C15.3674 9 15.2402 9.05268 15.1464 9.14645C15.0527 9.24021 15 9.36739 15 9.5V17.5C15 17.6326 15.0527 17.7598 15.1464 17.8536C15.2402 17.9473 15.3674 18 15.5 18C15.6326 18 15.7598 17.9473 15.8535 17.8536C15.9473 17.7598 16 17.6326 16 17.5V9.5C16 9.36739 15.9473 9.24021 15.8535 9.14645C15.7598 9.05268 15.6326 9 15.5 9ZM7.49999 11C7.36738 11 7.24021 11.0527 7.14644 11.1464C7.05267 11.2402 6.99999 11.3674 6.99999 11.5V17.5C6.99999 17.6326 7.05267 17.7598 7.14644 17.8536C7.24021 17.9473 7.36738 18 7.49999 18C7.6326 18 7.75978 17.9473 7.85354 17.8536C7.94731 17.7598 7.99999 17.6326 7.99999 17.5V11.5C7.99999 11.3674 7.94731 11.2402 7.85354 11.1464C7.75978 11.0527 7.6326 11 7.49999 11ZM11 13.5C11 13.3674 11.0527 13.2402 11.1464 13.1464C11.2402 13.0527 11.3674 13 11.5 13C11.6326 13 11.7598 13.0527 11.8535 13.1464C11.9473 13.2402 12 13.3674 12 13.5V17.5C12 17.6326 11.9473 17.7598 11.8535 17.8536C11.7598 17.9473 11.6326 18 11.5 18C11.3674 18 11.2402 17.9473 11.1464 17.8536C11.0527 17.7598 11 17.6326 11 17.5V13.5ZM2.99999 14.5C2.99999 14.3674 3.05267 14.2402 3.14644 14.1464C3.24021 14.0527 3.36738 14 3.49999 14C3.6326 14 3.75978 14.0527 3.85354 14.1464C3.94731 14.2402 3.99999 14.3674 3.99999 14.5V17.5C3.99999 17.6326 3.94731 17.7598 3.85354 17.8536C3.75978 17.9473 3.6326 18 3.49999 18C3.36738 18 3.24021 17.9473 3.14644 17.8536C3.05267 17.7598 2.99999 17.6326 2.99999 17.5V14.5Z"
            fill="var(--primary-fill, black)"
            stroke="var(--primary-stroke, black)"
            stroke-width="var(--primary-stroke-width, 0.4)"
        />
    </g>
</svg>