<svg width="28" height="28" viewBox="0 0 28 28" fill="none" xmlns="http://www.w3.org/2000/svg">
    <path
        d="M20.1818 2H7.81818C6.2751 2 4.79523 2.61299 3.70411 3.70411C2.61299 4.79523 2 6.2751 2 7.81818V20.1818C2 21.7249 2.61299 23.2048 3.70411 24.2959C4.79523 25.387 6.2751 26 7.81818 26H17.7716C18.5359 26 19.2926 25.8495 19.9987 25.557C20.7047 25.2645 21.3462 24.8358 21.8865 24.2953L24.2953 21.8865C24.8358 21.3462 25.2645 20.7047 25.557 19.9987C25.8495 19.2926 26 18.5359 26 17.7716V7.81818C26 6.2751 25.387 4.79523 24.2959 3.70411C23.2048 2.61299 21.7249 2 20.1818 2Z"
        stroke="var(--primary-stroke, black)"
        stroke-width="var(--primary-stroke-width, 2.18182)" stroke-linecap="round"
        stroke-linejoin="round" />
    <path
        d="M26 16.5455H20.9091C19.7518 16.5455 18.6419 17.0052 17.8235 17.8235C17.0052 18.6419 16.5455 19.7518 16.5455 20.9091V26M7.81818 7.81818H18.7273M7.81818 13.6364H15.0909"
        stroke="var(--primary-stroke, black)"
        stroke-width="var(--primary-stroke-width, 2.18182)"
        stroke-linecap="round" stroke-linejoin="round" />
</svg>