<svg width="26" height="25" viewBox="0 0 26 25" fill="none" xmlns="http://www.w3.org/2000/svg">
    <g id="Frame">
        <path id="Vector"
            d="M16.6985 14.9416C16.913 15.8493 16.9194 16.7937 16.717 17.7042C16.5147 18.6147 16.1089 19.4676 15.5302 20.199C14.9514 20.9304 14.2146 21.5213 13.375 21.9275C12.5354 22.3337 11.6148 22.5446 10.6821 22.5445V17.5995M16.6985 14.9416C18.6661 13.5083 20.2667 11.63 21.3696 9.45991C22.4726 7.28987 23.0465 4.88969 23.0446 2.45545C20.6105 2.45369 18.2105 3.02771 16.0407 4.13063C13.8708 5.23355 11.9926 6.83409 10.5595 8.80153M16.6985 14.9416C14.9079 16.2512 12.8562 17.158 10.6821 17.5995M10.6821 17.5995C10.576 17.6211 10.4688 17.6417 10.3617 17.6613C9.42708 16.9202 8.58086 16.074 7.83975 15.1394C7.85921 15.032 7.87879 14.9249 7.90053 14.8179M10.5595 8.80153C9.65174 8.58683 8.70716 8.58036 7.79655 8.78261C6.88594 8.98487 6.03291 9.39059 5.30139 9.96938C4.56988 10.5482 3.97884 11.285 3.57258 12.1247C3.16632 12.9644 2.95537 13.8851 2.95554 14.8179H7.90053M10.5595 8.80153C9.24998 10.5918 8.34224 12.6442 7.90053 14.8179M5.5939 17.2801C4.91621 17.7841 4.3893 18.4638 4.07025 19.2458C3.75119 20.0277 3.65214 20.882 3.78382 21.7162C4.61811 21.8478 5.4725 21.7486 6.25444 21.4293C7.03639 21.1101 7.71608 20.583 8.2199 19.9051M17.636 9.40935C17.636 9.81919 17.4732 10.2122 17.1834 10.5021C16.8936 10.7919 16.5005 10.9547 16.0907 10.9547C15.6808 10.9547 15.2878 10.7919 14.998 10.5021C14.7082 10.2122 14.5454 9.81919 14.5454 9.40935C14.5454 8.99951 14.7082 8.60645 14.998 8.31665C15.2878 8.02685 15.6808 7.86404 16.0907 7.86404C16.5005 7.86404 16.8936 8.02685 17.1834 8.31665C17.4732 8.60645 17.636 8.99951 17.636 9.40935Z"
            stroke="var(--primary-stroke, black)"
            stroke-width="var(--primary-stroke-width, 1.54531)"
            stroke-linecap="round"
            stroke-linejoin="round" />
    </g>
</svg>