<svg width="22" height="23" viewBox="0 0 22 23" fill="none" xmlns="http://www.w3.org/2000/svg">
    <g id="hugeicons:structure-check">
        <g id="Group">
            <path id="Vector"
                d="M13.6783 17.7051C13.6783 16.4517 13.6783 15.825 14.1313 15.4358C14.5851 15.0458 15.3138 15.0458 16.7729 15.0458C18.232 15.0458 18.9606 15.0458 19.4136 15.4358C19.8657 15.825 19.8657 16.4517 19.8657 17.7051C19.8657 18.9586 19.8657 19.5853 19.4136 19.9744C18.9606 20.3645 18.2311 20.3645 16.772 20.3645C15.3129 20.3645 14.5851 20.3645 14.1313 19.9744C13.6792 19.5853 13.6792 18.9586 13.6792 17.7051M6.61683 15.9712C9.07229 15.9712 11.0269 13.9679 11.0269 11.5044C11.0277 10.9197 10.9134 10.3405 10.6903 9.8C10.4673 9.25947 10.14 8.76816 9.72715 8.35411C9.31426 7.94007 8.82387 7.61141 8.28396 7.38689C7.74405 7.16237 7.16521 7.0464 6.58048 7.04558M6.61683 15.9712C4.16136 15.9712 2.13405 13.9679 2.13405 11.5044C2.13324 10.9197 2.2476 10.3405 2.47061 9.8C2.69363 9.25947 3.02092 8.76816 3.43381 8.35411C3.8467 7.94007 4.3371 7.61141 4.877 7.38689C5.41691 7.16237 5.99575 7.0464 6.58048 7.04558M6.61683 15.9712C6.55477 17.8594 7.93763 18.5481 8.92159 18.5845H11.0269M6.58048 7.04558C6.51843 5.13085 7.92434 4.45804 8.92071 4.41549H11.0367M13.6783 5.29485C13.6783 4.04141 13.6783 3.41469 14.1313 3.02554C14.5851 2.6355 15.3138 2.6355 16.7729 2.6355C18.232 2.6355 18.9606 2.6355 19.4136 3.02554C19.8648 3.4138 19.8648 4.04052 19.8648 5.29485C19.8648 6.54917 19.8648 7.175 19.4127 7.56415C18.9606 7.95331 18.2311 7.95419 16.7711 7.95419C15.3111 7.95419 14.5842 7.95419 14.1304 7.56415C13.6783 7.175 13.6783 6.54828 13.6783 5.29485Z"
                stroke="var(--primary-stroke, black)"
                stroke-width="var(--primary-stroke-width, 1.59561)"
                stroke-linecap="round" stroke-linejoin="round" />
            <path id="Vector_2"
                d="M8.08391 10.5072L6.24719 12.4273C6.23079 12.4443 6.21117 12.4578 6.18947 12.4671C6.16776 12.4764 6.14442 12.4813 6.1208 12.4815C6.09718 12.4816 6.07377 12.4771 6.05194 12.4681C6.0301 12.4591 6.01029 12.4458 5.99366 12.429L5.13203 11.5408"
                stroke="var(--primary-stroke, black)"
                stroke-width="var(--primary-stroke-width, 1.59561)" stroke-linecap="round"
                stroke-linejoin="round" />
        </g>
    </g>
</svg>