<svg xmlns="http://www.w3.org/2000/svg" width="16" height="16" viewBox="0 0 16 16" fill="none">
  <g clip-path="url(#clip0_10900_7066)">
    <path d="M7.99982 1.49997C6.60645 1.5003 5.25006 1.94837 4.13067 2.77812C3.01128 3.60786 2.18816 4.77535 1.78267 6.10842C1.37719 7.44149 1.41081 8.86958 1.87858 10.1821C2.34635 11.4946 3.22351 12.6221 4.3807 13.3982C5.5379 14.1743 6.91387 14.5581 8.30572 14.4928C9.69757 14.4276 11.0316 13.9168 12.1111 13.0358C13.1906 12.1548 13.9585 10.9503 14.3014 9.59975C14.6444 8.24924 14.5442 6.82427 14.0158 5.53497C13.9402 5.35091 13.9409 5.14436 14.0176 4.96077C14.0943 4.77717 14.2408 4.63156 14.4248 4.55597C14.6089 4.48039 14.8154 4.48101 14.999 4.55771C15.1826 4.63442 15.3282 4.78091 15.4038 4.96497C16.1045 6.6752 16.1914 8.57526 15.6497 10.3423C15.1081 12.1093 13.9714 13.6343 12.4327 14.6582C10.894 15.682 9.04826 16.1415 7.20915 15.9585C5.37004 15.7756 3.651 14.9615 2.34413 13.6547C1.03727 12.3478 0.223208 10.6288 0.0402739 8.78965C-0.14266 6.95054 0.316822 5.10482 1.34064 3.56613C2.36446 2.02743 3.88946 0.890689 5.65649 0.349057C7.42353 -0.192576 9.3236 -0.105682 11.0338 0.594972C11.125 0.632333 11.208 0.687292 11.2779 0.756711C11.3479 0.82613 11.4035 0.90865 11.4416 0.999558C11.4797 1.09047 11.4994 1.18798 11.4998 1.28654C11.5002 1.3851 11.4812 1.48277 11.4438 1.57397C11.4065 1.66518 11.3515 1.74813 11.2821 1.81809C11.2127 1.88805 11.1301 1.94366 11.0392 1.98173C10.9483 2.0198 10.8508 2.0396 10.7523 2.03998C10.6537 2.04036 10.556 2.02133 10.4648 1.98397C9.68244 1.66389 8.84514 1.49948 7.99982 1.49997ZM14.2798 1.71997C14.4203 1.8606 14.4992 2.05122 14.4992 2.24997C14.4992 2.44872 14.4203 2.63935 14.2798 2.77997L10.2168 6.84397C10.4931 7.37356 10.5707 7.98457 10.4355 8.5664C10.3002 9.14823 9.96115 9.6624 9.47959 10.0158C8.99804 10.3693 8.40585 10.5386 7.81025 10.4932C7.21464 10.4478 6.65499 10.1906 6.23261 9.76819C5.81023 9.34581 5.55304 8.78615 5.50762 8.19055C5.46219 7.59494 5.63152 7.00275 5.98496 6.5212C6.33839 6.03965 6.85257 5.70056 7.43439 5.56533C8.01622 5.4301 8.62724 5.50766 9.15682 5.78397L13.2198 1.71997C13.3604 1.57952 13.5511 1.50063 13.7498 1.50063C13.9486 1.50063 14.1392 1.57952 14.2798 1.71997ZM6.99982 7.99997C6.99982 8.26519 7.10518 8.51954 7.29272 8.70708C7.48025 8.89462 7.73461 8.99997 7.99982 8.99997C8.26504 8.99997 8.51939 8.89462 8.70693 8.70708C8.89446 8.51954 8.99982 8.26519 8.99982 7.99997C8.99982 7.73476 8.89446 7.4804 8.70693 7.29287C8.51939 7.10533 8.26504 6.99997 7.99982 6.99997C7.73461 6.99997 7.48025 7.10533 7.29272 7.29287C7.10518 7.4804 6.99982 7.73476 6.99982 7.99997Z" fill="var(--primary-fill, #5D5D5D)"/>
  </g>
  <defs>
    <clipPath id="clip0_10900_7066">
      <rect width="16" height="16" fill="var(--secondary-fill, white)"/>
    </clipPath>
  </defs>
</svg>