<svg width="16" height="16" viewBox="0 0 16 16" fill="none" xmlns="http://www.w3.org/2000/svg">
    <path
        d="M8.40322 2.30744C8.18291 2.1095 7.89719 2 7.60102 2C7.30484 2 7.01913 2.1095 6.79881 2.30744L2.3977 6.26204C2.27257 6.37457 2.1725 6.51216 2.10398 6.66587C2.03547 6.81958 2.00004 6.98598 2 7.15427V12.7997C2 13.118 2.12646 13.4233 2.35156 13.6484C2.57666 13.8735 2.88196 14 3.2003 14H4.80071C5.11905 14 5.42435 13.8735 5.64945 13.6484C5.87455 13.4233 6.00101 13.118 6.00101 12.7997V9.59889C6.00101 9.49277 6.04316 9.39101 6.1182 9.31597C6.19323 9.24094 6.295 9.19879 6.40111 9.19879H8.80172C8.90783 9.19879 9.0096 9.24094 9.08463 9.31597C9.15967 9.39101 9.20182 9.49277 9.20182 9.59889V12.7997C9.20182 13.118 9.32828 13.4233 9.55338 13.6484C9.77848 13.8735 10.0838 14 10.4021 14H12.0025C12.3209 14 12.6262 13.8735 12.8513 13.6484C13.0764 13.4233 13.2028 13.118 13.2028 12.7997V7.15427C13.2028 6.98598 13.1674 6.81958 13.0989 6.66587C13.0303 6.51216 12.9303 6.37457 12.8051 6.26204L8.40322 2.30744Z"
        stroke="var(--primary-stroke, white)"
        fill="var(--primary-fill, none)"
        stroke-width="var(--primary-stroke-width, 1)"
    />
</svg>