<svg xmlns="http://www.w3.org/2000/svg" width="23" height="22" viewBox="0 0 23 22" fill="none">
    <path
        d="M5 6.91667C5 6.27573 5.25461 5.66104 5.70783 5.20783C6.16104 4.75461 6.77573 4.5 7.41667 4.5H15.5833C16.2243 4.5 16.839 4.75461 17.2922 5.20783C17.7454 5.66104 18 6.27573 18 6.91667V9C18 9.82843 17.3284 10.5 16.5 10.5H14.4167C13.5105 10.5 12.6415 10.86 12.0007 11.5007C11.36 12.1415 11 13.0105 11 13.9167V16C11 16.8284 10.3284 17.5 9.5 17.5H7.41667C6.77573 17.5 6.16104 17.2454 5.70783 16.7922C5.25461 16.339 5 15.7243 5 15.0833V6.91667ZM13.4098 16.7924C13.4098 16.7924 13.4098 16.7924 13.4098 16.7924C13.4098 16.7924 13.4098 16.7925 13.4097 16.7925C13.3702 16.832 13.3487 16.8325 13.3487 16.8325C13.3452 16.8329 13.3301 16.8337 13.3032 16.8175C13.2442 16.7821 13.1667 16.6826 13.1667 16.5292V13.9167C13.1667 13.5851 13.2984 13.2672 13.5328 13.0328C13.7672 12.7984 14.0851 12.6667 14.4167 12.6667H17.0297C17.1827 12.6667 17.2818 12.744 17.3172 12.8028C17.3333 12.8295 17.3325 12.8446 17.3321 12.848C17.3319 12.8504 17.3311 12.8553 17.327 12.8636C17.3227 12.8721 17.3132 12.8879 17.2922 12.9089L13.4098 16.7924Z"
        fill="var(--primary-fill, none)"
        stroke="var(--primary-stroke, #747474)"
        stroke-width="var(--primary-stroke-width, 1)" stroke-linejoin="round" />
</svg>