<svg width="38" height="38" viewBox="0 0 38 38" fill="none" xmlns="http://www.w3.org/2000/svg">
<path d="M26.2035 11.6875H15.4591C15.3711 11.6874 15.2839 11.7047 15.2025 11.7383C15.1211 11.772 15.0472 11.8213 14.9849 11.8835C14.9226 11.9457 14.8731 12.0196 14.8393 12.1009C14.8056 12.1822 14.7882 12.2694 14.7881 12.3574V15.3438L21.0144 17.1719L26.8751 15.3438V12.3574C26.875 12.2693 26.8576 12.1821 26.8238 12.1008C26.79 12.0194 26.7405 11.9455 26.6781 11.8833C26.6157 11.8211 26.5417 11.7718 26.4603 11.7382C26.3788 11.7046 26.2916 11.6874 26.2035 11.6875Z" fill="#41A5EE"/>
<path d="M26.8751 15.3438H14.7881V19L21.0144 20.0969L26.8751 19V15.3438Z" fill="#2B7CD3"/>
<path d="M14.7881 19V22.6563L20.6482 23.3875L26.8751 22.6563V19H14.7881Z" fill="#185ABD"/>
<path d="M15.4591 26.3125H26.2029C26.291 26.3127 26.3784 26.2956 26.4599 26.262C26.5414 26.2284 26.6155 26.1791 26.6779 26.1169C26.7403 26.0547 26.7899 25.9808 26.8237 25.8994C26.8576 25.818 26.875 25.7307 26.8751 25.6426V22.6562H14.7881V25.6426C14.7882 25.7306 14.8056 25.8178 14.8393 25.8991C14.8731 25.9804 14.9226 26.0543 14.9849 26.1165C15.0472 26.1787 15.1211 26.228 15.2025 26.2617C15.2839 26.2953 15.3711 26.3126 15.4591 26.3125Z" fill="#103F91"/>
<path opacity="0.1" d="M19.2442 14.6125H14.7881V23.7532H19.2442C19.4218 23.7523 19.5918 23.6815 19.7176 23.5561C19.8433 23.4307 19.9145 23.2608 19.9158 23.0832V15.2825C19.9145 15.1049 19.8433 14.935 19.7176 14.8096C19.5918 14.6842 19.4218 14.6134 19.2442 14.6125Z" fill="black"/>
<path opacity="0.2" d="M18.878 14.978H14.7881V24.1187H18.878C19.0556 24.1178 19.2256 24.047 19.3514 23.9216C19.4771 23.7962 19.5483 23.6263 19.5496 23.4487V15.648C19.5483 15.4704 19.4771 15.3005 19.3514 15.1751C19.2256 15.0497 19.0556 14.9789 18.878 14.978Z" fill="black"/>
<path opacity="0.2" d="M18.878 14.978H14.7881V23.3874H18.878C19.0556 23.3865 19.2256 23.3157 19.3514 23.1903C19.4771 23.0649 19.5483 22.895 19.5496 22.7175V15.648C19.5483 15.4704 19.4771 15.3005 19.3514 15.1751C19.2256 15.0497 19.0556 14.9789 18.878 14.978Z" fill="black"/>
<path opacity="0.2" d="M18.5118 14.978H14.7881V23.3874H18.5118C18.6894 23.3865 18.8595 23.3157 18.9852 23.1903C19.1109 23.0649 19.1821 22.895 19.1835 22.7175V15.648C19.1821 15.4704 19.1109 15.3005 18.9852 15.1751C18.8595 15.0497 18.6894 14.9789 18.5118 14.978Z" fill="black"/>
<path d="M11.7966 14.978H18.5118C18.6896 14.9779 18.8603 15.0484 18.9862 15.174C19.1122 15.2996 19.1831 15.4701 19.1834 15.648V22.3518C19.1831 22.5297 19.1122 22.7002 18.9862 22.8258C18.8603 22.9514 18.6896 23.0219 18.5118 23.0218H11.7966C11.7085 23.0219 11.6213 23.0047 11.5398 22.9711C11.4584 22.9375 11.3844 22.8882 11.322 22.826C11.2596 22.7638 11.2101 22.6899 11.1763 22.6085C11.1425 22.5272 11.1251 22.4399 11.125 22.3518V15.648C11.1251 15.5599 11.1425 15.4726 11.1763 15.3913C11.2101 15.3099 11.2596 15.236 11.322 15.1738C11.3844 15.1116 11.4584 15.0623 11.5398 15.0287C11.6213 14.9951 11.7085 14.9779 11.7966 14.978Z" fill="url(#paint0_linear_3009_1846)"/>
<path d="M13.8808 20.1181C13.8938 20.2216 13.9028 20.3116 13.9067 20.3887H13.9224C13.9281 20.3156 13.9404 20.2273 13.959 20.1243C13.9776 20.0214 13.9939 19.9342 14.0091 19.8628L14.715 16.8213H15.6285L16.3598 19.8172C16.4024 20.0025 16.4328 20.1904 16.4509 20.3797H16.4633C16.4767 20.1954 16.5021 20.0122 16.5392 19.8313L17.1236 16.8174H17.9544L16.9284 21.1756H15.957L15.2612 18.2923C15.2409 18.209 15.2181 18.1006 15.1926 17.9671C15.1671 17.8336 15.1513 17.7361 15.1453 17.6746H15.1335C15.1256 17.7455 15.1099 17.8507 15.0863 17.9902C15.0626 18.1303 15.0441 18.2332 15.03 18.3007L14.3758 21.1773H13.3881L12.3564 16.8213H13.2002L13.8364 19.8689C13.8554 19.9512 13.8702 20.0344 13.8808 20.1181Z" fill="white"/>
<defs>
<linearGradient id="paint0_linear_3009_1846" x1="12.5279" y1="14.4515" x2="17.7805" y2="23.5483" gradientUnits="userSpaceOnUse">
<stop stop-color="#2368C4"/>
<stop offset="0.5" stop-color="#1A5DBE"/>
<stop offset="1" stop-color="#1146AC"/>
</linearGradient>
</defs>
</svg>
