<svg width="50" height="50" viewBox="0 0 50 50" fill="none" xmlns="http://www.w3.org/2000/svg">
    <g filter="url(#filter0_d_2496_3678)">
        <g filter="url(#filter1_d_2496_3678)">
            <path
                d="M30.568 11.4243L34.3932 15.4118V30.5753H20.1035V30.6248H34.442V15.462L30.568 11.4243Z"
                fill="#909090" />
        </g>
        <path d="M30.5205 11.375H20.0547V30.5755H34.3932V15.4127L30.5205 11.375Z" fill="white" />
        <path d="M19.9498 12.4062H15.5566V17.0998H29.3754V12.4062H19.9498Z" fill="#7A7B7C" />
        <path d="M29.4494 17.0202H15.6465V12.3232H29.4494V17.0202Z" fill="#DD2025" />
        <path
            d="M20.2228 13.1173H19.3242V16.4173H20.031V15.3043L20.187 15.3132C20.3387 15.3106 20.4889 15.2834 20.6318 15.2328C20.7572 15.1897 20.8725 15.1216 20.9708 15.0327C21.0708 14.948 21.1497 14.8412 21.2011 14.7206C21.27 14.5202 21.2947 14.3072 21.2733 14.0963C21.269 13.9457 21.2426 13.7965 21.1949 13.6536C21.1515 13.5504 21.0871 13.4574 21.0058 13.3804C20.9245 13.3035 20.828 13.2443 20.7226 13.2067C20.6314 13.1737 20.5373 13.1498 20.4414 13.1352C20.3688 13.124 20.2955 13.118 20.2221 13.1173M20.0922 14.6945H20.031V13.677H20.1637C20.2222 13.6727 20.281 13.6817 20.3356 13.7033C20.3902 13.7248 20.4393 13.7583 20.4792 13.8014C20.5619 13.9121 20.6061 14.0468 20.605 14.185C20.605 14.3542 20.605 14.5075 20.4524 14.6154C20.3425 14.6759 20.2173 14.7038 20.0922 14.6945ZM22.616 13.1084C22.5397 13.1084 22.4654 13.1139 22.4132 13.116L22.2495 13.1201H21.7133V16.4201H22.3444C22.5856 16.4267 22.8257 16.3858 23.0512 16.2998C23.2326 16.2278 23.3933 16.1118 23.5187 15.9622C23.6406 15.8113 23.7281 15.6355 23.7751 15.4473C23.8291 15.2341 23.8554 15.0148 23.8535 14.7948C23.8668 14.5351 23.8467 14.2747 23.7937 14.02C23.7433 13.8326 23.649 13.6598 23.5187 13.5161C23.4164 13.4 23.2911 13.3064 23.1508 13.2411C23.0304 13.1853 22.9037 13.1443 22.7734 13.1187C22.7216 13.1102 22.6692 13.1063 22.6167 13.107M22.4915 15.8137H22.4228V13.7072H22.4317C22.5735 13.6909 22.7169 13.7165 22.8442 13.7808C22.9375 13.8553 23.0135 13.9491 23.067 14.0558C23.1247 14.1681 23.158 14.2913 23.1646 14.4174C23.1708 14.5687 23.1646 14.6924 23.1646 14.7948C23.1674 14.9128 23.1598 15.0309 23.1419 15.1475C23.1207 15.2673 23.0815 15.3832 23.0257 15.4913C22.9625 15.5918 22.8772 15.6764 22.7762 15.7388C22.6913 15.7936 22.5909 15.8192 22.4902 15.8117M25.9827 13.1201H24.312V16.4201H25.0188V15.1111H25.9125V14.4978H25.0188V13.7333H25.9813V13.1201"
            fill="#464648" />
        <path
            d="M28.9735 23.9253C28.9735 23.9253 31.1652 23.5279 31.1652 24.2766C31.1652 25.0253 29.8074 24.7207 28.9735 23.9253ZM27.3531 23.9824C27.0048 24.0593 26.6655 24.172 26.3404 24.3185L26.6154 23.6998C26.8904 23.081 27.1757 22.2375 27.1757 22.2375C27.5038 22.7898 27.8856 23.3084 28.3156 23.7857C27.9913 23.8341 27.67 23.9002 27.3531 23.9837V23.9824ZM26.4854 19.5136C26.4854 18.8612 26.6965 18.6831 26.8608 18.6831C27.0251 18.6831 27.2101 18.7622 27.2162 19.3287C27.1627 19.8983 27.0434 20.4598 26.8608 21.002C26.6106 20.5468 26.4812 20.0351 26.4847 19.5157L26.4854 19.5136ZM23.2892 26.7434C22.6169 26.3412 24.6993 25.103 25.0767 25.0631C25.0747 25.0638 23.9932 27.1641 23.2892 26.7434ZM31.8053 24.3653C31.7984 24.2965 31.7366 23.5355 30.3822 23.5678C29.8177 23.5587 29.2534 23.5985 28.6957 23.6867C28.1555 23.1425 27.6904 22.5287 27.3125 21.8614C27.5506 21.1735 27.6946 20.4566 27.7408 19.7302C27.7209 18.9052 27.5236 18.4322 26.8911 18.439C26.2586 18.4459 26.1664 18.9994 26.2496 19.823C26.3311 20.3764 26.4848 20.9168 26.7068 21.4304C26.7068 21.4304 26.4146 22.3399 26.0282 23.2447C25.6419 24.1494 25.3779 24.6238 25.3779 24.6238C24.706 24.8425 24.0735 25.1675 23.5044 25.5863C22.9379 26.1136 22.7076 26.5185 23.006 26.9235C23.2631 27.2727 24.1631 27.3518 24.9674 26.2979C25.3948 25.7535 25.7853 25.1811 26.1362 24.5846C26.1362 24.5846 27.3627 24.2484 27.7442 24.1563C28.1258 24.0642 28.5871 23.9913 28.5871 23.9913C28.5871 23.9913 29.7071 25.1181 30.7871 25.0782C31.8672 25.0384 31.8149 24.4327 31.8081 24.3667"
            fill="#DD2025" />
        <path d="M30.4678 11.4282V15.4659H34.3405L30.4678 11.4282Z" fill="#909090" />
        <path d="M30.5205 11.375V15.4127H34.3932L30.5205 11.375Z" fill="#F4F4F4" />
        <path
            d="M20.17 13.0641H19.2715V16.3641H19.981V15.2517L20.1377 15.2607C20.2894 15.2581 20.4396 15.2309 20.5825 15.1802C20.7079 15.1371 20.8232 15.0691 20.9215 14.9802C21.0208 14.8953 21.0989 14.7884 21.1497 14.6681C21.2187 14.4677 21.2433 14.2547 21.2219 14.0438C21.2176 13.8932 21.1912 13.744 21.1435 13.6011C21.1001 13.4979 21.0357 13.4048 20.9544 13.3279C20.8731 13.251 20.7767 13.1918 20.6712 13.1542C20.5797 13.1209 20.485 13.0967 20.3887 13.082C20.3161 13.0708 20.2428 13.0648 20.1694 13.0641M20.0394 14.6412H19.9782V13.6237H20.1116C20.1702 13.6195 20.2289 13.6285 20.2836 13.6501C20.3382 13.6716 20.3873 13.7051 20.4272 13.7482C20.5099 13.8589 20.5541 13.9936 20.553 14.1318C20.553 14.3009 20.553 14.4542 20.4004 14.5622C20.2904 14.6227 20.1652 14.6499 20.0401 14.6406M22.5632 13.0552C22.4869 13.0552 22.4127 13.0607 22.3604 13.0627L22.1989 13.0669H21.6626V16.3669H22.2937C22.5349 16.3735 22.7751 16.3326 23.0005 16.2466C23.1819 16.1746 23.3426 16.0586 23.468 15.909C23.5899 15.7581 23.6774 15.5823 23.7244 15.3941C23.7784 15.1808 23.8048 14.9616 23.8028 14.7416C23.8161 14.4819 23.796 14.2215 23.743 13.9668C23.6926 13.7794 23.5984 13.6066 23.468 13.4629C23.3657 13.3468 23.2404 13.2532 23.1002 13.1879C22.9797 13.1321 22.853 13.091 22.7227 13.0655C22.6709 13.0569 22.6185 13.053 22.566 13.0538M22.4409 15.7605H22.3721V13.654H22.381C22.5228 13.6377 22.6662 13.6633 22.7935 13.7276C22.8868 13.802 22.9628 13.8959 23.0163 14.0026C23.074 14.1149 23.1073 14.2381 23.1139 14.3642C23.1201 14.5154 23.1139 14.6392 23.1139 14.7416C23.1167 14.8596 23.1091 14.9776 23.0912 15.0943C23.07 15.2141 23.0309 15.33 22.975 15.4381C22.9119 15.5385 22.8265 15.6232 22.7255 15.6856C22.6407 15.7404 22.5402 15.766 22.4395 15.7584M25.9299 13.0669H24.2593V16.3669H24.966V15.0579H25.8598V14.4446H24.966V13.6801H25.9285V13.0669"
            fill="white" />
    </g>
    <defs>
        <filter id="filter0_d_2496_3678" x="0.556641" y="0.375" width="48.8857" height="49.2498"
            filterUnits="userSpaceOnUse" color-interpolation-filters="sRGB">
            <feFlood flood-opacity="0" result="BackgroundImageFix" />
            <feColorMatrix in="SourceAlpha" type="matrix"
                values="0 0 0 0 0 0 0 0 0 0 0 0 0 0 0 0 0 0 127 0" result="hardAlpha" />
            <feOffset dy="4" />
            <feGaussianBlur stdDeviation="7.5" />
            <feComposite in2="hardAlpha" operator="out" />
            <feColorMatrix type="matrix" values="0 0 0 0 0 0 0 0 0 0 0 0 0 0 0 0 0 0 0.3 0" />
            <feBlend mode="normal" in2="BackgroundImageFix" result="effect1_dropShadow_2496_3678" />
            <feBlend mode="normal" in="SourceGraphic" in2="effect1_dropShadow_2496_3678"
                result="shape" />
        </filter>
        <filter id="filter1_d_2496_3678" x="16.1035" y="11.4243" width="22.3389" height="27.2004"
            filterUnits="userSpaceOnUse" color-interpolation-filters="sRGB">
            <feFlood flood-opacity="0" result="BackgroundImageFix" />
            <feColorMatrix in="SourceAlpha" type="matrix"
                values="0 0 0 0 0 0 0 0 0 0 0 0 0 0 0 0 0 0 127 0" result="hardAlpha" />
            <feOffset dy="4" />
            <feGaussianBlur stdDeviation="2" />
            <feComposite in2="hardAlpha" operator="out" />
            <feColorMatrix type="matrix" values="0 0 0 0 0 0 0 0 0 0 0 0 0 0 0 0 0 0 0.25 0" />
            <feBlend mode="normal" in2="BackgroundImageFix" result="effect1_dropShadow_2496_3678" />
            <feBlend mode="normal" in="SourceGraphic" in2="effect1_dropShadow_2496_3678"
                result="shape" />
        </filter>
    </defs>
</svg>