<svg width="38" height="38" viewBox="0 0 38 38" fill="none" xmlns="http://www.w3.org/2000/svg">
<path d="M21.0144 18.6342L14.7881 17.5374V25.6424C14.7882 25.7305 14.8056 25.8176 14.8393 25.899C14.8731 25.9803 14.9226 26.0542 14.9849 26.1164C15.0472 26.1786 15.1211 26.2279 15.2025 26.2615C15.2839 26.2952 15.3711 26.3124 15.4591 26.3124H26.2029C26.291 26.3126 26.3784 26.2954 26.4599 26.2619C26.5414 26.2283 26.6155 26.179 26.6779 26.1168C26.7403 26.0545 26.7899 25.9806 26.8237 25.8992C26.8576 25.8178 26.875 25.7306 26.8751 25.6424V22.6561L21.0144 18.6342Z" fill="#185C37"/>
<path d="M21.0144 11.6875H15.4591C15.3711 11.6874 15.2839 11.7047 15.2025 11.7383C15.1211 11.772 15.0472 11.8213 14.9849 11.8835C14.9226 11.9457 14.8731 12.0196 14.8393 12.1009C14.8056 12.1822 14.7882 12.2694 14.7881 12.3574V15.3438L21.0144 19L24.3112 20.0969L26.8751 19V15.3438L21.0144 11.6875Z" fill="#21A366"/>
<path d="M14.7881 15.3438H21.0144V19H14.7881V15.3438Z" fill="#107C41"/>
<path opacity="0.1" d="M19.2442 14.6123H14.7881V23.7529H19.2442C19.4218 23.752 19.5918 23.6812 19.7176 23.5558C19.8433 23.4304 19.9145 23.2606 19.9158 23.083V15.2822C19.9145 15.1047 19.8433 14.9348 19.7176 14.8094C19.5918 14.684 19.4218 14.6132 19.2442 14.6123Z" fill="black"/>
<path opacity="0.2" d="M18.878 14.9783H14.7881V24.1189H18.878C19.0556 24.118 19.2256 24.0472 19.3514 23.9218C19.4771 23.7964 19.5483 23.6265 19.5496 23.449V15.6482C19.5483 15.4706 19.4771 15.3008 19.3514 15.1754C19.2256 15.05 19.0556 14.9792 18.878 14.9783Z" fill="black"/>
<path opacity="0.2" d="M18.878 14.9783H14.7881V23.3876H18.878C19.0556 23.3868 19.2256 23.316 19.3514 23.1906C19.4771 23.0652 19.5483 22.8953 19.5496 22.7177V15.6482C19.5483 15.4706 19.4771 15.3008 19.3514 15.1754C19.2256 15.05 19.0556 14.9792 18.878 14.9783Z" fill="black"/>
<path opacity="0.2" d="M18.5118 14.9783H14.7881V23.3876H18.5118C18.6894 23.3868 18.8595 23.316 18.9852 23.1906C19.1109 23.0652 19.1821 22.8953 19.1835 22.7177V15.6482C19.1821 15.4706 19.1109 15.3008 18.9852 15.1754C18.8595 15.05 18.6894 14.9792 18.5118 14.9783Z" fill="black"/>
<path d="M11.7966 14.9783H18.5118C18.6896 14.9781 18.8603 15.0486 18.9862 15.1742C19.1122 15.2998 19.1831 15.4703 19.1834 15.6482V22.3521C19.1831 22.53 19.1122 22.7004 18.9862 22.8261C18.8603 22.9517 18.6896 23.0222 18.5118 23.022H11.7966C11.7085 23.0222 11.6213 23.005 11.5398 22.9714C11.4584 22.9378 11.3844 22.8885 11.322 22.8262C11.2596 22.764 11.2101 22.6901 11.1763 22.6088C11.1425 22.5274 11.1251 22.4402 11.125 22.3521V15.6482C11.1251 15.5601 11.1425 15.4729 11.1763 15.3915C11.2101 15.3102 11.2596 15.2363 11.322 15.1741C11.3844 15.1118 11.4584 15.0625 11.5398 15.0289C11.6213 14.9953 11.7085 14.9781 11.7966 14.9783Z" fill="url(#paint0_linear_3009_1821)"/>
<path d="M13.207 21.1784L14.6195 18.9937L13.3257 16.8213H14.3647L15.0706 18.2124C15.1358 18.344 15.1831 18.4419 15.2045 18.5071H15.214C15.2602 18.4014 15.3091 18.2995 15.3603 18.2L16.1152 16.8235H17.0714L15.7445 18.9835L17.1052 21.1801H16.0876L15.272 19.6552C15.2341 19.5896 15.2019 19.5209 15.1758 19.4499H15.1623C15.1385 19.5191 15.1068 19.5853 15.0678 19.6473L14.228 21.1784H13.207Z" fill="white"/>
<path d="M26.2027 11.6875H21.0137V15.3438H26.8744V12.3574C26.8743 12.2693 26.8569 12.1821 26.8231 12.1008C26.7893 12.0194 26.7398 11.9455 26.6774 11.8833C26.615 11.8211 26.541 11.7718 26.4595 11.7382C26.3781 11.7046 26.2908 11.6874 26.2027 11.6875Z" fill="#33C481"/>
<path d="M21.0137 19H26.8744V22.6562H21.0137V19Z" fill="#107C41"/>
<defs>
<linearGradient id="paint0_linear_3009_1821" x1="12.5279" y1="14.4518" x2="17.7805" y2="23.5485" gradientUnits="userSpaceOnUse">
<stop stop-color="#18884F"/>
<stop offset="0.5" stop-color="#117E43"/>
<stop offset="1" stop-color="#0B6631"/>
</linearGradient>
</defs>
</svg>
