<svg xmlns="http://www.w3.org/2000/svg" width="16" height="17" viewBox="0 0 16 17" fill="none">
    <path
        d="M14.5543 8.2572C14.5543 6.81283 14.0955 5.40578 13.2441 4.23902C12.3927 3.07225 11.1927 2.20607 9.81723 1.76542C8.44172 1.32476 6.96179 1.33241 5.5909 1.78725C4.22001 2.24209 3.02903 3.12063 2.18973 4.29613C1.35044 5.47163 0.906216 6.88334 0.92114 8.32764C0.936065 9.77194 1.40936 11.1742 2.27277 12.3321C3.13617 13.49 4.34506 14.3437 5.72505 14.7701C7.10505 15.1965 8.58482 15.1736 9.95094 14.7046"
        fill="var(--primary-fill, none)"
        stroke="var(--primary-stroke, #565656)"
        stroke-width="var(--primary-stroke-width, 0.810941)"
        stroke-linecap="round"
        stroke-linejoin="round" />
    <path d="M8.63281 13.6279L10.9545 14.3421L9.39709 16.3609"
        fill="var(--primary-fill, none)"
        stroke="var(--primary-stroke, #565656)"
        stroke-width="var(--primary-stroke-width, 0.810941)" stroke-linecap="round"
        stroke-linejoin="round" />
    <path
        d="M4.07761 8.60375C4.07761 9.37923 4.32393 10.1347 4.78105 10.7611C5.23816 11.3875 5.88244 11.8526 6.62095 12.0892C7.35947 12.3258 8.15404 12.3217 8.89007 12.0775C9.6261 11.8333 10.2655 11.3616 10.7162 10.7304C11.1668 10.0993 11.4053 9.34137 11.3973 8.56593C11.3893 7.79049 11.1351 7.03763 10.6716 6.41595C10.208 5.79427 9.55897 5.3359 8.81805 5.10696C8.07713 4.87801 7.28264 4.89033 6.54917 5.14213"
        fill="var(--primary-fill, none)"
        stroke="var(--primary-stroke, #565656)"
        stroke-width="var(--primary-stroke-width, 0.810941)" stroke-linecap="round"
        stroke-linejoin="round" />
    <path d="M7.86127 6.0918L5.6227 5.67593L6.85631 3.62885"
        stroke-linecap="round" stroke-linejoin="round"
        fill="var(--primary-fill, none)"
        stroke="var(--primary-stroke, #565656)"
        stroke-width="var(--primary-stroke-width, 0.810941)"
    />
</svg>