<svg width="16" height="16" viewBox="0 0 16 16" fill="none" xmlns="http://www.w3.org/2000/svg">
    <g id="Autofill Icon">
        <path id="Vector"
            d="M5 3.73337L6.66667 4.66671L5.73334 3.00004L6.66667 1.33337L5 2.26671L3.33334 1.33337L4.26667 3.00004L3.33334 4.66671L5 3.73337ZM13 10.2667L11.3333 9.33337L12.2667 11L11.3333 12.6667L13 11.7334L14.6667 12.6667L13.7333 11L14.6667 9.33337L13 10.2667ZM14.6667 1.33337L13 2.26671L11.3333 1.33337L12.2667 3.00004L11.3333 4.66671L13 3.73337L14.6667 4.66671L13.7333 3.00004L14.6667 1.33337ZM9.58 4.86004C9.51833 4.79824 9.44507 4.74921 9.36442 4.71575C9.28377 4.6823 9.19731 4.66508 9.11 4.66508C9.02269 4.66508 8.93623 4.6823 8.85559 4.71575C8.77494 4.74921 8.70168 4.79824 8.64 4.86004L0.860002 12.64C0.798199 12.7017 0.749168 12.775 0.715713 12.8556C0.682259 12.9363 0.665039 13.0227 0.665039 13.11C0.665039 13.1974 0.682259 13.2838 0.715713 13.3645C0.749168 13.4451 0.798199 13.5184 0.860002 13.58L2.42 15.14C2.68 15.4 3.1 15.4 3.36 15.14L11.1333 7.36671C11.1951 7.30503 11.2442 7.23177 11.2776 7.15112C11.3111 7.07048 11.3283 6.98402 11.3283 6.89671C11.3283 6.8094 11.3111 6.72294 11.2776 6.64229C11.2442 6.56164 11.1951 6.48838 11.1333 6.42671L9.58 4.86004ZM8.89334 8.52004L7.48 7.10671L9.10667 5.48004L10.52 6.89337L8.89334 8.52004Z"
            fill="var(--primary-fill, #9747FF)" />
    </g>
</svg>