<svg width="22" height="23" viewBox="0 0 22 23" fill="none" xmlns="http://www.w3.org/2000/svg">
    <g id="Frame">
        <path id="Vector"
            d="M18.5625 7.41394L17.9896 17.1599C17.9587 17.6852 17.7282 18.1789 17.3453 18.5398C16.9624 18.9007 16.456 19.1016 15.9298 19.1014H6.07017C5.54397 19.1016 5.03758 18.9007 4.65467 18.5398C4.27177 18.1789 4.04129 17.6852 4.01042 17.1599L3.4375 7.41394M9.16667 10.8514H12.8333M3.09375 7.41394H18.9063C19.4755 7.41394 19.9375 6.95194 19.9375 6.38269V5.00769C19.9375 4.43844 19.4755 3.97644 18.9063 3.97644H3.09375C2.5245 3.97644 2.0625 4.43844 2.0625 5.00769V6.38269C2.0625 6.95194 2.5245 7.41394 3.09375 7.41394Z"
            fill="var(--primary-fill, none)"
            stroke="var(--primary-stroke, black)"
            stroke-width="var(--primary-stroke-width, 1.5)"
            stroke-linecap="round" stroke-linejoin="round" />
    </g>
</svg>