<svg xmlns="http://www.w3.org/2000/svg" width="22" height="22" viewBox="0 0 22 22" fill="none">
    <path
        d="M13.2374 6.65415C13.2374 7.0027 13.1688 7.34783 13.0354 7.66985C12.902 7.99186 12.7065 8.28445 12.46 8.53091C12.2136 8.77737 11.921 8.97288 11.599 9.10626C11.277 9.23964 10.9318 9.3083 10.5833 9.3083C10.2347 9.3083 9.8896 9.23964 9.56758 9.10626C9.24556 8.97288 8.95297 8.77737 8.70651 8.53091C8.46005 8.28445 8.26455 7.99186 8.13117 7.66985C7.99778 7.34783 7.92913 7.0027 7.92913 6.65415C7.92913 5.95022 8.20876 5.27513 8.70651 4.77738C9.20426 4.27963 9.87936 4 10.5833 4C11.2872 4 11.9623 4.27963 12.46 4.77738C12.9578 5.27513 13.2374 5.95022 13.2374 6.65415ZM18.1666 14.9958C18.1666 15.6997 17.8869 16.3748 17.3892 16.8725C16.8914 17.3703 16.2163 17.6499 15.5124 17.6499C14.8085 17.6499 14.1334 17.3703 13.6356 16.8725C13.1379 16.3748 12.8583 15.6997 12.8583 14.9958C12.8583 14.2918 13.1379 13.6167 13.6356 13.119C14.1334 12.6212 14.8085 12.3416 15.5124 12.3416C16.2163 12.3416 16.8914 12.6212 17.3892 13.119C17.8869 13.6167 18.1666 14.2918 18.1666 14.9958ZM8.3083 14.9958C8.3083 15.3443 8.23964 15.6894 8.10626 16.0115C7.97288 16.3335 7.77737 16.6261 7.53091 16.8725C7.28445 17.119 6.99186 17.3145 6.66985 17.4479C6.34783 17.5813 6.0027 17.6499 5.65415 17.6499C5.3056 17.6499 4.96047 17.5813 4.63845 17.4479C4.31643 17.3145 4.02384 17.119 3.77738 16.8725C3.53092 16.6261 3.33542 16.3335 3.20203 16.0115C3.06865 15.6894 3 15.3443 3 14.9958C3 14.2918 3.27963 13.6167 3.77738 13.119C4.27513 12.6212 4.95022 12.3416 5.65415 12.3416C6.35807 12.3416 7.03316 12.6212 7.53091 13.119C8.02866 13.6167 8.3083 14.2918 8.3083 14.9958Z"
        stroke-linecap="round" stroke-linejoin="round"
        fill="var(--primary-fill, none)"
        stroke="var(--primary-stroke, #747474)"
        stroke-width="var(--primary-stroke-width, 1)" />
</svg>