<svg xmlns="http://www.w3.org/2000/svg" width="52" height="53" viewBox="0 0 52 53" fill="none">
    <circle cx="25.8513" cy="26.6829" r="23.9077"
        fill="var(--secondary-fill, none)" stroke="var(--secondary-stroke, black)"
        stroke-width="var(--secondary-stroke-width, 3.88722)"
    />
    <path
        d="M28.236 15.3867C28.9665 15.3867 29.5791 15.64 30.0739 16.1466C30.5805 16.6532 30.8338 17.2658 30.8338 17.9845C30.8338 18.7031 30.5805 19.3158 30.0739 19.8223C29.5673 20.3289 28.9547 20.5822 28.236 20.5822C27.5292 20.5822 26.9224 20.3289 26.4158 19.8223C25.9092 19.3158 25.6559 18.7031 25.6559 17.9845C25.6559 17.2658 25.9034 16.6532 26.3982 16.1466C26.9048 15.64 27.5174 15.3867 28.236 15.3867ZM29.3317 23.5158L25.709 36.0804C25.5087 36.7991 25.4085 37.2703 25.4085 37.4942C25.4085 37.6237 25.4616 37.7474 25.5676 37.8653C25.6736 37.9713 25.7855 38.0243 25.9034 38.0243C26.1036 38.0243 26.3039 37.9359 26.5042 37.7592C27.0343 37.3233 27.6705 36.534 28.4128 35.3912L29.0136 35.7446C27.2346 38.8431 25.3437 40.3923 23.3409 40.3923C22.5752 40.3923 21.9625 40.1803 21.5031 39.7561C21.0554 39.3202 20.8315 38.7724 20.8315 38.1127C20.8315 37.6768 20.9317 37.123 21.132 36.4515L23.5883 28.0044C23.824 27.1915 23.9418 26.5789 23.9418 26.1665C23.9418 25.9073 23.8299 25.6776 23.606 25.4773C23.3822 25.277 23.0759 25.1769 22.6871 25.1769C22.5104 25.1769 22.2983 25.1828 22.0509 25.1946L22.2806 24.4877L28.2714 23.5158H29.3317Z"
        fill="var(--primary-fill, black)" stroke="var(--primary-stroke, none)"
        stroke-width="var(--primary-stroke-width, 0)" />
</svg>