<svg width="22" height="22" viewBox="0 0 22 22" fill="none" xmlns="http://www.w3.org/2000/svg">
    <path
        d="M14.75 8.75V7.25C14.75 5.15 13.1 3.5 11 3.5C8.9 3.5 7.25 5.15 7.25 7.25V8.75C5.975 8.75 5 9.725 5 11V16.25C5 17.525 5.975 18.5 7.25 18.5H14.75C16.025 18.5 17 17.525 17 16.25V11C17 9.725 16.025 8.75 14.75 8.75ZM8.75 7.25C8.75 5.975 9.725 5 11 5C12.275 5 13.25 5.975 13.25 7.25V8.75H8.75V7.25Z"
        fill="var(--primary-fill, #999999)"
        stroke="var(--primary-stroke, none)"
        stroke-width="var(--primary-stroke-width, 0)" />
</svg>