<svg width="16" height="16" viewBox="0 0 16 16" fill="none" xmlns="http://www.w3.org/2000/svg">
<path d="M8.63617 0.530222C8.50117 0.650222 7.45117 2.73397 7.45117 2.73397L6.66992 5.88522L9.70992 5.60647C9.70992 5.60647 12.2387 0.903972 12.2899 0.795222C12.3812 0.597722 12.4299 0.516472 12.0812 0.516472C11.7324 0.515222 8.76242 0.417722 8.63617 0.530222Z" fill="#176CC7"/>
<path d="M10.2099 5.41135C10.0586 5.3301 5.60361 5.2601 5.49861 5.41135C5.40361 5.54885 5.45736 6.2701 5.49361 6.35635C5.55861 6.50635 6.98986 7.0876 6.98986 7.0876V7.44885C6.98986 7.44885 7.08736 7.48885 7.92236 7.48885C8.75736 7.48885 8.92361 7.44635 8.92361 7.44635L8.92986 7.09885C8.92986 7.09885 10.1724 6.45885 10.2374 6.3701C10.2949 6.29635 10.3611 5.4926 10.2099 5.41135ZM8.91736 6.55385C8.91736 6.55385 8.93486 6.38135 8.84861 6.33885C8.76236 6.2951 7.27111 6.3026 7.15361 6.30885C7.03611 6.3151 7.03611 6.5251 7.03611 6.5251L6.10236 6.03135L6.08611 5.86635L9.57861 5.8851L9.58611 6.1076L8.91736 6.55385Z" fill="#FCC11A"/>
<path d="M7.38008 6.47998C7.26258 6.47998 7.17383 6.61248 7.17383 6.82248C7.17383 7.01998 7.24133 7.18248 7.39008 7.17373C7.53133 7.16623 7.59883 6.98748 7.58883 6.81998C7.57633 6.62373 7.52883 6.47998 7.38008 6.47998Z" fill="#FDFFFF"/>
<path d="M3.66406 11.5111C3.66406 14.5061 6.37781 15.7524 8.17906 15.6986C10.2778 15.6361 12.5353 14.0436 12.3491 11.1861C12.1741 8.50488 9.88781 7.22488 7.91531 7.23988C5.62281 7.25613 3.66406 8.89488 3.66406 11.5111Z" fill="#F8932A"/>
<path d="M8.06505 15.1612C8.0338 15.1612 8.0013 15.1612 7.97005 15.1599C7.03255 15.1287 6.08005 14.7749 5.40255 14.1187C4.67755 13.4162 4.23005 12.5274 4.22755 11.5062C4.2213 8.82365 6.52005 7.8374 7.9988 7.8374H8.0113C10.0151 7.84615 11.7463 9.34365 11.7913 11.4549C11.8113 12.3949 11.4263 13.3899 10.6713 14.1324C9.96755 14.8237 8.9288 15.1612 8.06505 15.1612Z" fill="#FCC11A"/>
<path d="M3.18902 0.465052C3.11027 0.537552 6.12152 5.90005 6.12152 5.90005C6.12152 5.90005 6.62652 5.96505 7.75402 5.97505C8.88152 5.98505 9.44027 5.91005 9.44027 5.91005C9.44027 5.91005 7.09902 0.518802 6.95902 0.465052C6.89027 0.437552 5.96277 0.427552 5.05652 0.417552C4.14902 0.406302 3.26402 0.395052 3.18902 0.465052Z" fill="#2E9DF4"/>
<path d="M6.5361 8.41887C6.3536 8.26262 5.42485 8.73387 4.77235 9.81262C4.33485 10.5364 4.29735 11.4626 4.5761 11.4776C4.85485 11.4926 4.8511 10.5764 5.45735 9.77512C6.18985 8.81137 6.79985 8.64512 6.5361 8.41887Z" fill="#FEFFFA"/>
<path d="M8.04621 8.3623C7.80246 8.3623 7.42246 9.97355 7.12371 10.1723C6.82496 10.3711 5.27746 10.1811 5.25996 10.3986C5.24246 10.6161 6.40871 11.5211 6.54496 11.8548C6.68121 12.1886 5.95621 13.6823 6.15621 13.8273C6.35496 13.9723 7.60371 12.9311 8.01996 12.9311C8.45371 12.9311 9.57121 14.0423 9.75746 13.8898C9.95371 13.7298 9.32371 12.2698 9.42246 11.9348C9.52246 11.5998 10.8787 10.8848 10.825 10.5598C10.7712 10.2336 9.19621 10.4786 8.90621 10.2073C8.61621 9.93605 8.30871 8.3623 8.04621 8.3623Z" fill="#F8932A"/>
</svg>
