<svg xmlns="http://www.w3.org/2000/svg" width="24" height="24" viewBox="0 0 24 24" fill="none">
  <g clip-path="url(#clip0_10896_6774)">
    <path d="M20.2765 6.39067L14.2765 0.390667C14.0359 0.15 13.7019 0 13.3332 0C12.5972 0 12.0005 0.597333 11.9999 1.33333C11.9999 1.70133 12.1492 2.03533 12.3905 2.27667L9.81787 4.84933L15.8179 10.8493L18.3905 8.27667C18.6319 8.51733 18.9652 8.66667 19.3332 8.66667C20.0692 8.66667 20.6672 8.06933 20.6665 7.33333C20.6665 6.96533 20.5172 6.632 20.2765 6.39067Z" fill="#E1E8ED"/>
    <path d="M13.3332 0H3.33317C1.8605 0 0.666504 1.194 0.666504 2.66667V21.3333C0.666504 22.806 1.8605 24 3.33317 24H17.9998C19.4725 24 20.6665 22.806 20.6665 21.3333V7.33333H14.6665C13.9998 7.33333 13.3332 6.66667 13.3332 6V0Z" fill="var(--primary-fill, #CCD6DD)"/>
    <path d="M13.3335 0H12.0002V6C12.0002 7.47267 13.1942 8.66667 14.6668 8.66667H20.6668V7.33333H14.6668C14.0002 7.33333 13.3335 6.66667 13.3335 6V0ZM10.0002 5.33333C10.0002 5.70133 9.7015 6 9.3335 6H4.00016C3.63216 6 3.3335 5.70133 3.3335 5.33333C3.3335 4.96533 3.63216 4.66667 4.00016 4.66667H9.3335C9.7015 4.66667 10.0002 4.96533 10.0002 5.33333ZM10.0002 8C10.0002 8.368 9.7015 8.66667 9.3335 8.66667H4.00016C3.63216 8.66667 3.3335 8.368 3.3335 8C3.3335 7.632 3.63216 7.33333 4.00016 7.33333H9.3335C9.7015 7.33333 10.0002 7.632 10.0002 8ZM18.0002 10.6667C18.0002 11.0347 17.7022 11.3333 17.3335 11.3333H4.00016C3.63216 11.3333 3.3335 11.0347 3.3335 10.6667C3.3335 10.2987 3.63216 10 4.00016 10H17.3335C17.7022 10 18.0002 10.2987 18.0002 10.6667ZM18.0002 13.3333C18.0002 13.702 17.7022 14 17.3335 14H4.00016C3.63216 14 3.3335 13.702 3.3335 13.3333C3.3335 12.9647 3.63216 12.6667 4.00016 12.6667H17.3335C17.7022 12.6667 18.0002 12.9647 18.0002 13.3333ZM18.0002 16C18.0002 16.3687 17.7022 16.6667 17.3335 16.6667H4.00016C3.63216 16.6667 3.3335 16.3687 3.3335 16C3.3335 15.6313 3.63216 15.3333 4.00016 15.3333H17.3335C17.7022 15.3333 18.0002 15.6313 18.0002 16ZM18.0002 18.6667C18.0002 19.0353 17.7022 19.3333 17.3335 19.3333H4.00016C3.63216 19.3333 3.3335 19.0353 3.3335 18.6667C3.3335 18.298 3.63216 18 4.00016 18H17.3335C17.7022 18 18.0002 18.298 18.0002 18.6667Z" fill="var(--primary-fill, #99AAB5)"/>
    <path d="M20.6668 12.6667C20.6668 12.6667 16.7295 12.6654 16.7102 12.6667C16.5162 12.6667 16.1035 12.7827 15.8735 13.0707L14.3215 15.0234C13.8922 15.5627 13.8922 16.4361 14.3215 16.9767L15.8735 18.9294C16.1035 19.2174 16.5162 19.3334 16.7102 19.3334C16.7228 19.3347 19.0748 19.3334 20.6668 19.3334V12.6667Z" fill="var(--primary-fill, #66757F)"/>
    <path d="M21.9999 12.6667C21.9999 12.6667 16.6292 12.6654 16.6106 12.6667C16.4166 12.6667 16.0039 12.7594 15.7739 12.9901L14.2219 14.5514C13.7932 14.9827 13.7932 15.6814 14.2219 16.1141L15.7739 17.6754C16.0039 17.9061 16.4166 18.0001 16.6106 18.0001C16.6292 18.0014 21.9999 18.0001 21.9999 18.0001C22.7359 18.0001 23.3332 17.4021 23.3332 16.6661V14.0001C23.3332 13.2641 22.7359 12.6667 21.9999 12.6667Z" fill="var(--primary-fill, #744EAA)"/>
  </g>
  <defs>
    <clipPath id="clip0_10896_6774">
      <rect width="24" height="24" fill="var(--secondary-fill, white)"/>
    </clipPath>
  </defs>
</svg>