<svg xmlns="http://www.w3.org/2000/svg" width="20" height="16" viewBox="0 0 20 16" fill="none">
    <path
        d="M1.46667 14.8091V13.9909C1.46667 12.472 2.07008 11.0152 3.14415 9.94115C4.21823 8.86708 5.67498 8.26367 7.19395 8.26367C8.71291 8.26367 10.1697 8.86708 11.2437 9.94115C12.3178 11.0152 12.9212 12.472 12.9212 13.9909V14.8091"
        stroke-linecap="round" fill="var(--primary-fill, none)"
        stroke="var(--primary-stroke, #565656)"
        stroke-width="var(--primary-stroke-width, 1)" />
    <path
        d="M11.2849 9.90048C11.2849 8.8155 11.7159 7.77496 12.4831 7.00777C13.2502 6.24058 14.2908 5.80957 15.3758 5.80957C15.913 5.80957 16.445 5.91538 16.9413 6.12097C17.4376 6.32656 17.8886 6.62789 18.2685 7.00777C18.6483 7.38765 18.9497 7.83862 19.1553 8.33496C19.3609 8.83129 19.4667 9.36325 19.4667 9.90048V10.3096"
        stroke-linecap="round" fill="var(--primary-fill, none)"
        stroke="var(--primary-stroke, #565656)"
        stroke-width="var(--primary-stroke-width, 1)" />
    <path
        d="M7.1935 8.26403C8.06148 8.26403 8.89392 7.91922 9.50767 7.30547C10.1214 6.69171 10.4662 5.85928 10.4662 4.9913C10.4662 4.12332 10.1214 3.29089 9.50767 2.67713C8.89392 2.06338 8.06148 1.71857 7.1935 1.71857C6.32552 1.71857 5.49309 2.06338 4.87934 2.67713C4.26558 3.29089 3.92078 4.12332 3.92078 4.9913C3.92078 5.85928 4.26558 6.69171 4.87934 7.30547C5.49309 7.91922 6.32552 8.26403 7.1935 8.26403ZM15.3753 5.80948C16.0263 5.80948 16.6506 5.55088 17.1109 5.09056C17.5713 4.63025 17.8299 4.00592 17.8299 3.35494C17.8299 2.70395 17.5713 2.07963 17.1109 1.61931C16.6506 1.15899 16.0263 0.900391 15.3753 0.900391C14.7243 0.900391 14.1 1.15899 13.6397 1.61931C13.1794 2.07963 12.9208 2.70395 12.9208 3.35494C12.9208 4.00592 13.1794 4.63025 13.6397 5.09056C14.1 5.55088 14.7243 5.80948 15.3753 5.80948Z"
        stroke-linecap="round" stroke-linejoin="round"
        fill="var(--primary-fill, none)"
        stroke="var(--primary-stroke, #565656)"
        stroke-width="var(--primary-stroke-width, 1)" />
</svg>