<svg width="22" height="22" viewBox="0 0 22 22" fill="none" xmlns="http://www.w3.org/2000/svg">
    <g id="hugeicons:computer-video-call">
        <g id="Group">
            <path id="Vector"
                d="M13.2917 20.1666L13.002 19.7826C12.3512 18.9172 12.1889 17.5945 12.6014 16.5M8.70833 20.1666L8.998 19.7826C9.64883 18.9172 9.81108 17.5945 9.39858 16.5M6.41666 20.1666H15.5833M12.8333 1.83331H9.16666C6.16 1.83331 4.65758 1.83331 3.59241 2.57948C3.19828 2.85546 2.85548 3.19827 2.57949 3.5924C1.83333 4.65665 1.83333 6.15998 1.83333 9.16665C1.83333 12.1733 1.83333 13.6757 2.57949 14.7409C2.85548 15.135 3.19828 15.4778 3.59241 15.7538C4.65666 16.5 6.16 16.5 9.16666 16.5H12.8333C15.84 16.5 17.3424 16.5 18.4076 15.7538C18.8017 15.4778 19.1445 15.135 19.4205 14.7409C20.1667 13.6766 20.1667 12.1733 20.1667 9.16665C20.1667 6.15998 20.1667 4.65756 19.4205 3.5924C19.1445 3.19827 18.8017 2.85546 18.4076 2.57948C17.3433 1.83331 15.84 1.83331 12.8333 1.83331Z"
                fill="var(--primary-fill, none)"
                stroke="var(--primary-stroke, black)"
                stroke-width="var(--primary-stroke-width, 1.4)"
                stroke-linecap="round" stroke-linejoin="round" />
            <path id="Vector_2"
                d="M7.33333 12.8333C9.01816 10.4546 12.9424 10.3244 14.6667 12.8333M12.8333 7.33333C12.8333 7.81956 12.6402 8.28588 12.2964 8.6297C11.9525 8.97351 11.4862 9.16667 11 9.16667C10.5138 9.16667 10.0474 8.97351 9.70363 8.6297C9.35982 8.28588 9.16666 7.81956 9.16666 7.33333C9.16666 6.8471 9.35982 6.38079 9.70363 6.03697C10.0474 5.69315 10.5138 5.5 11 5.5C11.4862 5.5 11.9525 5.69315 12.2964 6.03697C12.6402 6.38079 12.8333 6.8471 12.8333 7.33333Z"
                stroke="var(--secondary-stroke, black)"
                stroke-width="var(--secondary-stroke-width, 1.4)"
                stroke-linecap="round" stroke-linejoin="round" />
        </g>
    </g>
</svg>