<svg xmlns="http://www.w3.org/2000/svg" width="43" height="43" viewBox="0 0 43 43" fill="none">
  <path d="M41.0229 1.97689L18.724 24.2757M2.08317 16.1352L40.3644 1.64671C40.5025 1.59389 40.653 1.58219 40.7976 1.61302C40.9422 1.64385 41.0748 1.71589 41.1793 1.82044C41.2839 1.92499 41.3559 2.05757 41.3867 2.20218C41.4176 2.34679 41.4059 2.49723 41.353 2.63533L26.8645 40.9166C26.8069 41.0619 26.7061 41.1862 26.5758 41.2726C26.4455 41.359 26.2918 41.4034 26.1354 41.3999C25.9791 41.3963 25.8276 41.345 25.7013 41.2528C25.575 41.1606 25.48 41.0319 25.429 40.884L18.9786 24.9887C18.9034 24.7634 18.7768 24.5588 18.6089 24.3908C18.441 24.2229 18.2363 24.0963 18.011 24.0211L2.11571 17.5765C1.96597 17.5267 1.83528 17.4318 1.74153 17.3048C1.64778 17.1779 1.59555 17.0251 1.59199 16.8673C1.58843 16.7095 1.63371 16.5545 1.72163 16.4235C1.80956 16.2924 1.93583 16.1917 2.08317 16.1352Z" stroke="var(--primary-stroke, #000000)" stroke-width="var(--primary-stroke-width, 3.0625)" stroke-linecap="round" stroke-linejoin="round"/>
</svg>

