<svg width="15" height="15" viewBox="0 0 15 15" fill="none" xmlns="http://www.w3.org/2000/svg">
    <path
        d="M3.47875 2.91063C3.71997 2.84522 3.96882 2.81222 4.21875 2.8125H10.7812C11.0375 2.8125 11.285 2.84688 11.5206 2.91063C11.3648 2.59936 11.1254 2.33762 10.8292 2.15471C10.5331 1.97181 10.1918 1.87495 9.84375 1.875H5.15625C4.80805 1.87484 4.46669 1.97164 4.17041 2.15455C3.87412 2.33746 3.63463 2.59927 3.47875 2.91063ZM1.40625 7.5C1.40625 7.00272 1.60379 6.52581 1.95542 6.17418C2.30706 5.82254 2.78397 5.625 3.28125 5.625H11.7188C12.216 5.625 12.6929 5.82254 13.0446 6.17418C13.3962 6.52581 13.5938 7.00272 13.5938 7.5V11.25C13.5938 11.7473 13.3962 12.2242 13.0446 12.5758C12.6929 12.9275 12.216 13.125 11.7188 13.125H3.28125C2.78397 13.125 2.30706 12.9275 1.95542 12.5758C1.60379 12.2242 1.40625 11.7473 1.40625 11.25V7.5ZM3.28125 4.6875C3.025 4.6875 2.7775 4.72188 2.54125 4.78563C2.69713 4.47427 2.93662 4.21246 3.23291 4.02955C3.52919 3.84664 3.87055 3.74984 4.21875 3.75H10.7812C11.1293 3.74995 11.4706 3.84681 11.7667 4.02972C12.0629 4.21262 12.3023 4.47436 12.4581 4.78563C12.2171 4.72027 11.9685 4.68728 11.7188 4.6875H3.28125Z"
        fill-opacity="0.7" fill="var(--primary-fill, white)" stroke="var(--primary-stroke, none)"
        stroke-width="var(--primary-stroke-width, 0)" />
    <path
        d="M1.40625 7.5C1.40625 7.00272 1.60379 6.52581 1.95542 6.17418C2.30706 5.82254 2.78397 5.625 3.28125 5.625H11.7188C12.216 5.625 12.6929 5.82254 13.0446 6.17418C13.3962 6.52581 13.5938 7.00272 13.5938 7.5V11.25C13.5938 11.7473 13.3962 12.2242 13.0446 12.5758C12.6929 12.9275 12.216 13.125 11.7188 13.125H3.28125C2.78397 13.125 2.30706 12.9275 1.95542 12.5758C1.60379 12.2242 1.40625 11.7473 1.40625 11.25V7.5Z"
        fill="var(--primary-fill, white)" stroke="var(--primary-stroke, none)"
        stroke-width="var(--primary-stroke-width, 0)" />
</svg>