<svg xmlns="http://www.w3.org/2000/svg" width="30" height="30" viewBox="0 0 30 30" fill="none">
    <path
        d="M10.2053 21.9564C9.7331 21.9564 9.35033 21.5736 9.35033 21.1014L9.35033 19.3915C9.35033 18.9194 9.7331 18.5366 10.2053 18.5366H19.3248C19.797 18.5366 20.1797 18.9194 20.1797 19.3915V21.1014C20.1797 21.5736 19.797 21.9564 19.3248 21.9564H10.2053Z"
        fill="var(--primary-fill, none)"
        stroke="var(--primary-stroke, #747474)"
        stroke-width="var(--primary-stroke-width, 1)" />
    <path
        d="M10.2053 17.3972C9.7331 17.3972 9.35033 17.0144 9.35033 16.5422L9.35033 14.8323C9.35033 14.3601 9.7331 13.9773 10.2053 13.9773L19.3248 13.9773C19.797 13.9773 20.1797 14.3601 20.1797 14.8323V16.5422C20.1797 17.0144 19.797 17.3972 19.3248 17.3972L10.2053 17.3972Z"
        fill="var(--primary-fill, none)"
        stroke="var(--primary-stroke, #747474)"
        stroke-width="var(--primary-stroke-width, 1)"/>
    <path
        d="M10.7495 12.6158C10.2934 12.738 9.82458 12.4673 9.70237 12.0112L9.25981 10.3596C9.1376 9.90351 9.40827 9.43471 9.86436 9.3125L18.6731 6.9522C19.1292 6.82999 19.598 7.10065 19.7202 7.55674L20.1628 9.20838C20.285 9.66447 20.0143 10.1333 19.5582 10.2555L10.7495 12.6158Z"
        fill="var(--primary-fill, none)"
        stroke="var(--primary-stroke, #747474)"
        stroke-width="var(--primary-stroke-width, 1)"/>
</svg>