<svg xmlns="http://www.w3.org/2000/svg" width="28" height="16" viewBox="0 0 28 16" fill="none">
<path d="M7.99727 14.995V13.8288C7.99727 12.2823 8.61161 10.7992 9.70515 9.70564C10.7987 8.6121 12.2818 7.99776 13.8283 7.99776M13.8283 7.99776C15.3748 7.99776 16.858 8.6121 17.9515 9.70564C19.045 10.7992 19.6594 12.2823 19.6594 13.8288V14.995M13.8283 7.99776C14.7562 7.99776 15.6461 7.62916 16.3022 6.97303C16.9584 6.31691 17.327 5.42702 17.327 4.49912C17.327 3.57123 16.9584 2.68134 16.3022 2.02522C15.6461 1.36909 14.7562 1.00049 13.8283 1.00049C12.9004 1.00049 12.0105 1.36909 11.3544 2.02522C10.6983 2.68134 10.3297 3.57123 10.3297 4.49912C10.3297 5.42702 10.6983 6.31691 11.3544 6.97303C12.0105 7.62916 12.9004 7.99776 13.8283 7.99776ZM1 14.995V13.8288C1 12.9009 1.36861 12.011 2.02473 11.3549C2.68085 10.6988 3.57074 10.3302 4.49864 10.3302M4.49864 10.3302C5.11723 10.3302 5.71049 10.0844 6.14791 9.64703C6.58532 9.20962 6.83106 8.61636 6.83106 7.99776C6.83106 7.37916 6.58532 6.7859 6.14791 6.34849C5.71049 5.91107 5.11723 5.66534 4.49864 5.66534C3.88004 5.66534 3.28678 5.91107 2.84936 6.34849C2.41195 6.7859 2.16621 7.37916 2.16621 7.99776C2.16621 8.61636 2.41195 9.20962 2.84936 9.64703C3.28678 10.0844 3.88004 10.3302 4.49864 10.3302ZM26.6567 14.995V13.8288C26.6567 12.9009 26.2881 12.011 25.6319 11.3549C24.9758 10.6988 24.0859 10.3302 23.158 10.3302M23.158 10.3302C23.7766 10.3302 24.3699 10.0844 24.8073 9.64703C25.2447 9.20962 25.4905 8.61636 25.4905 7.99776C25.4905 7.37916 25.2447 6.7859 24.8073 6.34849C24.3699 5.91107 23.7766 5.66534 23.158 5.66534C22.5394 5.66534 21.9462 5.91107 21.5088 6.34849C21.0713 6.7859 20.8256 7.37916 20.8256 7.99776C20.8256 8.61636 21.0713 9.20962 21.5088 9.64703C21.9462 10.0844 22.5394 10.3302 23.158 10.3302Z"

fill="var(--primary-fill, none)"
        stroke="var(--primary-stroke, #CCCCCC)"
        stroke-width="var(--primary-stroke-width, 1)"
 stroke-linecap="round" stroke-linejoin="round"/>
</svg>
